<svg width="138" height="45" viewBox="0 0 138 45" fill="none" xmlns="http://www.w3.org/2000/svg">
<path d="M34.663 43.0017C35.1208 43.0017 35.492 42.6306 35.492 42.1727C35.492 41.7149 35.1208 41.3438 34.663 41.3438C34.2051 41.3438 33.834 41.7149 33.834 42.1727C33.834 42.6306 34.2051 43.0017 34.663 43.0017Z" fill="#B92425"/>
<path d="M68.8582 35.417V35.4082C68.8317 35.4214 68.8009 35.4347 68.7744 35.4479C68.8009 35.4391 68.8317 35.4258 68.8582 35.417Z" fill="#166D9F"/>
<path d="M60.2734 34.3059V34.3235C60.3131 34.3544 60.3528 34.3897 60.3881 34.4206C60.3484 34.3853 60.3087 34.3456 60.2734 34.3103V34.3059Z" fill="#166D9F"/>
<path d="M70.5784 41.0347C63.6423 44.7255 59.8898 41.899 57.663 39.434C55.0393 36.5282 53.1741 31.4087 53.1036 31.2147C51.9086 27.6915 49.404 25.1428 45.8587 23.8332C43.3012 22.8896 41.0788 22.916 40.8495 22.9248H38.4155C37.9437 22.9248 37.5645 23.3085 37.5645 23.7759C37.5645 24.2433 37.9481 24.6269 38.4155 24.6269H40.8892C40.8892 24.6269 42.9308 24.5696 45.2679 25.4294C48.3589 26.5671 50.4534 28.7013 51.4897 31.7659V31.7791C51.5735 32.004 53.5092 37.3748 56.3975 40.5761C58.223 42.6001 60.1588 43.8171 62.3062 44.2977C62.9941 44.4521 63.7084 44.527 64.4404 44.527C65.1195 44.527 65.8162 44.4609 66.5261 44.3286C67.8093 44.0905 69.1674 43.6231 70.574 42.9484V41.0347H70.5784Z" fill="#369CD0"/>
<path d="M66.7072 36.0124C66.4514 36.0124 66.1957 35.9948 65.9443 35.9551C64.4054 35.7258 62.99 34.791 61.9625 33.3226C60.2208 30.8357 57.5045 24.6138 57.3281 24.2082C55.97 21.3332 53.1612 18.9697 51.1196 17.9908C48.8619 16.906 46.3088 16.3328 43.7424 16.3328H28.8251C28.3665 16.3328 27.9961 15.9624 27.9961 15.5038C27.9961 15.0452 28.3665 14.6748 28.8251 14.6748H43.7424C46.5557 14.6748 49.3558 15.3054 51.8383 16.4959C54.215 17.638 57.3017 20.2484 58.8362 23.5159L58.845 23.5379C58.8715 23.6041 61.6539 29.9979 63.3207 32.3746C64.0923 33.4814 65.0845 34.1516 66.1869 34.3148C67.2716 34.4779 68.3872 34.1384 69.4234 33.3314C69.785 33.0492 70.3053 33.1154 70.5875 33.477C70.8698 33.8385 70.8036 34.3589 70.442 34.6411C69.2911 35.5406 67.9859 36.0124 66.7028 36.0124H66.7072Z" fill="#2EA4DE"/>
<path d="M70.7598 36.934C66.2841 39.712 62.8579 39.2093 59.9873 35.351C58.7703 33.7194 57.6767 31.1575 56.9668 29.2967C56.8919 29.1027 56.8125 28.9042 56.7331 28.7146C56.1599 27.2904 55.5117 26.0733 54.8282 25.0327L54.7797 24.993C54.74 24.9269 54.7003 24.8651 54.6606 24.799C54.6386 24.7637 54.6165 24.7329 54.5945 24.6976C54.5636 24.6535 54.5372 24.6094 54.5063 24.5653C54.4799 24.5256 54.4534 24.4859 54.4225 24.4418C54.3873 24.3933 54.352 24.3404 54.3167 24.2919C54.3123 24.2875 54.3079 24.2787 54.3035 24.2743C54.2814 24.2434 54.2638 24.2169 54.2417 24.1861C54.2153 24.1508 54.1932 24.1155 54.1668 24.0802C54.1535 24.0626 54.1447 24.0494 54.1315 24.0317C54.105 23.9965 54.0786 23.9612 54.0521 23.9259C54.0257 23.8906 54.0036 23.8598 53.9772 23.8245C53.9772 23.8245 53.9772 23.8245 53.9728 23.8201C53.9639 23.8069 53.9551 23.798 53.9463 23.7848C53.9198 23.7539 53.8978 23.7231 53.8713 23.6922C53.8537 23.6702 53.8317 23.6437 53.814 23.6217C53.8008 23.604 53.7876 23.5908 53.7743 23.5732C53.7699 23.5687 53.7655 23.5599 53.7611 23.5555C53.7302 23.5158 53.695 23.4761 53.6641 23.4365C53.6553 23.4276 53.6465 23.4144 53.6376 23.4056C53.6288 23.3924 53.6156 23.3791 53.6068 23.3659C53.5891 23.3439 53.5715 23.3218 53.5539 23.3042C53.5274 23.2733 53.5009 23.2424 53.4745 23.216C53.4613 23.2028 53.448 23.1851 53.4348 23.1719C53.4304 23.1631 53.4216 23.1587 53.4172 23.1498C53.3951 23.1234 53.3687 23.0969 53.3466 23.0705C53.3157 23.0396 53.2893 23.0043 53.2584 22.9735C53.2452 22.9602 53.2364 22.947 53.2231 22.9382C53.1967 22.9073 53.1658 22.8764 53.1394 22.8456C53.1129 22.8191 53.0864 22.7883 53.06 22.7618C53.0071 22.7045 52.9542 22.6516 52.8968 22.5942C52.8748 22.5678 52.8483 22.5457 52.8219 22.5237C52.7822 22.484 52.7425 22.4443 52.6984 22.4046C52.672 22.3782 52.6455 22.3517 52.619 22.3297C52.5617 22.2768 52.5044 22.2194 52.4471 22.1665C52.4206 22.1445 52.3986 22.1224 52.3721 22.1004C52.328 22.0607 52.2839 22.0254 52.2442 21.9857C52.2178 21.9637 52.1913 21.9416 52.1649 21.9152C52.1031 21.8623 52.0414 21.8093 51.9797 21.7608C51.9532 21.7388 51.9267 21.7167 51.9047 21.6991C51.865 21.6682 51.8297 21.6374 51.7901 21.6065C51.7812 21.6021 51.7768 21.5933 51.768 21.5889C51.7415 21.5668 51.7151 21.5492 51.693 21.5271C51.6269 21.4786 51.5652 21.4257 51.499 21.3772C51.4726 21.3596 51.4461 21.3375 51.4197 21.3199C51.3711 21.2846 51.3182 21.2449 51.2697 21.2097C51.2477 21.192 51.2212 21.1744 51.1992 21.1567C51.133 21.1082 51.0625 21.0641 50.9963 21.0156C50.9699 20.998 50.9434 20.9804 50.917 20.9627C50.8641 20.9274 50.8067 20.8922 50.7538 20.8569C50.7318 20.8437 50.7097 20.8304 50.6877 20.8128C50.6171 20.7687 50.5466 20.7246 50.476 20.6805C50.4496 20.6629 50.4231 20.6496 50.3966 20.632C50.3349 20.5967 50.2776 20.5615 50.2159 20.5262C50.1982 20.5174 50.1806 20.5041 50.1585 20.4953C50.0836 20.4512 50.0086 20.4115 49.9336 20.3718C49.9072 20.3586 49.8807 20.341 49.8543 20.3278C49.7881 20.2925 49.7176 20.2572 49.6514 20.2219C49.6338 20.2131 49.6162 20.2043 49.5985 20.1955C49.5236 20.1602 49.453 20.1205 49.3781 20.0852C49.3516 20.072 49.3251 20.0588 49.2987 20.0455C49.2193 20.0103 49.1399 19.9706 49.065 19.9353C49.0517 19.9309 49.0385 19.9221 49.0253 19.9177C48.9547 19.8868 48.8798 19.8515 48.8092 19.8207C48.7828 19.8118 48.7607 19.7986 48.7343 19.7898C48.6505 19.7545 48.5711 19.7237 48.4873 19.6884C48.4741 19.684 48.4565 19.6751 48.4432 19.6707C48.3727 19.6443 48.2977 19.6134 48.2228 19.587C48.1963 19.5781 48.1743 19.5693 48.1478 19.5605C48.064 19.5296 47.9802 19.4988 47.892 19.4723C47.8744 19.4679 47.8568 19.4591 47.8391 19.4547C47.7642 19.4282 47.6936 19.4062 47.6187 19.3841C47.5966 19.3753 47.5746 19.3709 47.5481 19.3621C47.4599 19.3356 47.3761 19.3092 47.2879 19.2827C47.2703 19.2783 47.2483 19.2739 47.2306 19.2651C47.1557 19.243 47.0807 19.2254 47.0013 19.2033C46.9793 19.1989 46.9572 19.1901 46.9352 19.1857C46.847 19.1636 46.7544 19.1416 46.6662 19.1195C46.6442 19.1151 46.6265 19.1107 46.6045 19.1063C46.5251 19.0887 46.4501 19.071 46.3708 19.0534C46.3531 19.0534 46.3311 19.0446 46.3134 19.0402C46.2208 19.0225 46.1327 19.0049 46.0401 18.9873C46.018 18.9873 45.996 18.9784 45.9739 18.974C45.8945 18.9608 45.8108 18.9476 45.7314 18.9343C45.7137 18.9343 45.7005 18.9299 45.6829 18.9255C45.5903 18.9123 45.4977 18.8991 45.4007 18.8858C45.3786 18.8858 45.3566 18.8814 45.3345 18.877C45.2507 18.8682 45.1626 18.855 45.0788 18.8462C45.0656 18.8462 45.0523 18.8462 45.0391 18.8462C44.9421 18.8373 44.8495 18.8285 44.7525 18.8197C44.7304 18.8197 44.704 18.8197 44.6819 18.8153C44.5893 18.8065 44.5011 18.8021 44.4085 18.7977C44.3997 18.7977 44.3953 18.7977 44.3865 18.7977C44.2895 18.7932 44.1925 18.7888 44.091 18.7844C44.069 18.7844 44.047 18.7844 44.0249 18.7844C43.9896 18.7844 43.9544 18.7844 43.9191 18.7844H36.5376C36.0657 18.7844 35.6865 19.1681 35.6865 19.6355C35.6865 20.1029 36.0702 20.4865 36.5376 20.4865H43.2797C44.6158 20.5526 50.7097 20.9759 54.0036 27.0831C54.4578 27.9253 54.9649 28.891 55.3882 29.9052C55.7277 30.7915 56.1511 31.8366 56.6361 32.8772C57.2226 34.1339 57.906 35.3906 58.6336 36.3695C60.1637 38.4288 61.8393 39.6679 63.7575 40.1617C64.3572 40.3161 64.9745 40.391 65.6095 40.391C67.2233 40.391 68.9519 39.8927 70.7774 38.905V36.934H70.7598Z" fill="#0077B4"/>
<path d="M27.0303 14.6616L30.1698 14.6837L29.1689 15.1952L27.0303 14.6616Z" fill="#369CD0"/>
<path d="M97.3448 42.8738H71.1038V22.0962C71.1038 18.9214 73.6878 16.3418 76.8582 16.3418H97.3404C97.799 16.3418 98.1694 15.9714 98.1694 15.5128C98.1694 15.0542 97.799 14.6838 97.3404 14.6838H76.8582C72.7706 14.6838 69.4414 18.0086 69.4414 22.1006V44.5406H97.3404C97.799 44.5406 98.1694 44.1702 98.1694 43.7116C98.1694 43.253 97.799 42.8827 97.3404 42.8827L97.3448 42.8738Z" fill="#C18052"/>
<path d="M97.3437 18.8022H78.2903C75.7195 18.8022 73.625 20.8968 73.625 23.4675V40.3692H97.3393C97.7979 40.3692 98.1683 39.9988 98.1683 39.5402C98.1683 39.0816 97.7979 38.7112 97.3393 38.7112H75.283V23.4675C75.283 21.8095 76.6323 20.4602 78.2903 20.4602H97.3437C97.8023 20.4602 98.1727 20.0898 98.1727 19.6312C98.1727 19.1726 97.8023 18.8022 97.3437 18.8022Z" fill="#8F4A21"/>
<path d="M97.3443 34.5796H79.4549L79.4769 27.4626V25.8708C79.4813 25.0242 80.0237 24.6714 80.6851 24.6714H97.3443C97.8028 24.6714 98.1732 24.301 98.1732 23.8424C98.1732 23.3838 97.8028 23.0134 97.3443 23.0134H80.0854C78.842 23.0134 77.8322 24.0144 77.8189 25.2535V26.5675L77.7881 36.2375H97.3398C97.7984 36.2375 98.1688 35.8671 98.1688 35.4086C98.1688 34.95 97.7984 34.5796 97.3398 34.5796H97.3443Z" fill="#C18052"/>
<path d="M9.44546 34.8484C9.43223 34.9145 9.41901 34.9807 9.40137 35.0424C9.41901 34.9763 9.43223 34.9145 9.44546 34.8484Z" fill="#70B949"/>
<path d="M9.51196 34.1516C9.51196 34.3853 9.48991 34.619 9.44141 34.8483C9.4855 34.619 9.51196 34.3853 9.51196 34.1516Z" fill="#70B949"/>
<path d="M9.51196 34.1516C9.51196 34.3853 9.48991 34.619 9.44141 34.8483C9.4855 34.619 9.51196 34.3853 9.51196 34.1516Z" fill="#70B949"/>
<path d="M9.44546 34.8484C9.43223 34.9145 9.41901 34.9807 9.40137 35.0424C9.41901 34.9763 9.43223 34.9145 9.44546 34.8484Z" fill="#70B949"/>
<path d="M9.60391 35.6289C9.78911 35.1571 9.89053 34.6544 9.89053 34.1518C9.89053 31.947 8.09586 30.1567 5.89551 30.1567C3.92005 30.1567 2.2268 31.6339 1.94018 33.5653C0.771664 34.0327 0 35.1571 0 36.4403C0 38.1512 1.389 39.5402 3.09988 39.5402C3.40855 39.5402 3.71281 39.4917 4.00383 39.4035V42.7944C4.00383 43.2398 4.36541 43.6057 4.81518 43.6057C5.26495 43.6057 5.62653 43.2442 5.62653 42.7944V40.5103C6.08953 40.766 6.62308 40.9071 7.17868 40.9071C8.3913 40.9071 9.44958 40.2281 9.99195 39.2271C9.96549 39.2006 9.94344 39.1698 9.9214 39.1389C9.84643 39.0287 9.80234 38.9008 9.78911 38.7729C9.78029 38.6935 9.7847 38.6098 9.80234 38.5304C9.8288 38.4025 9.88171 38.2879 9.95667 38.1865C10.0096 38.1203 10.0713 38.0586 10.1463 38.0101C10.2168 37.9616 10.2918 37.9263 10.3712 37.9042C10.3712 37.8381 10.38 37.772 10.38 37.7058C10.38 36.9297 10.1066 36.2022 9.60832 35.6245L9.60391 35.6289ZM7.17868 39.2844C6.4467 39.2844 5.82496 38.7861 5.65299 38.0983C5.63976 38.0542 5.63094 38.0057 5.62653 37.9572V37.8293L6.7245 37.1149C7.09931 36.8724 7.20514 36.3697 6.96261 35.9905C6.72009 35.6157 6.21741 35.5099 5.8426 35.7524L5.62653 35.8935V34.8793C5.62653 34.434 5.26495 34.068 4.81518 34.068C4.36541 34.068 4.00383 34.4296 4.00383 34.8793V37.3751C4.00383 37.3751 4.00383 37.3795 4.00383 37.3839V37.6088C3.74808 37.8116 3.42619 37.9219 3.09988 37.9219C2.77358 37.9219 2.46492 37.8116 2.21798 37.6264C2.1783 37.6 2.14302 37.5691 2.10775 37.5338C2.09011 37.5162 2.07247 37.503 2.05483 37.4853C2.01956 37.4501 1.98869 37.4148 1.95782 37.3795C1.74617 37.1238 1.61829 36.7975 1.61829 36.4403C1.61829 36.1228 1.7153 35.8318 1.88727 35.5893C1.91373 35.554 1.93577 35.5231 1.96664 35.4878C2.18271 35.2277 2.49137 35.0469 2.84413 34.9851C3.24099 34.919 3.5232 34.5751 3.51879 34.1738V34.1385C3.51879 34.0988 3.51879 34.0592 3.51879 34.0151C3.51879 33.9357 3.53202 33.8607 3.54084 33.7858C3.55406 33.7108 3.56729 33.6358 3.58493 33.5609C3.84509 32.5335 4.77991 31.775 5.88669 31.775C6.13363 31.775 6.36733 31.8103 6.59222 31.8809C6.66718 31.9029 6.73773 31.9294 6.80828 31.9602C7.65932 32.3218 8.25901 33.164 8.25901 34.1473C8.25901 34.5795 8.13995 35.0072 7.91066 35.3776C7.69459 35.7348 7.77837 36.1934 8.1135 36.4491C8.26342 36.5638 8.3913 36.696 8.48831 36.846C8.61618 37.04 8.69555 37.256 8.72642 37.4853C8.73083 37.5162 8.73524 37.5515 8.73524 37.5868C8.73524 37.6264 8.73524 37.6617 8.73524 37.7014C8.73524 38.5701 8.02972 39.2756 7.16104 39.2756L7.17868 39.2844Z" fill="#70B949"/>
<path d="M17.5454 35.6289C17.7306 35.1571 17.832 34.6544 17.832 34.1518C17.832 31.947 16.0373 30.1567 13.837 30.1567C12.5891 30.1567 11.4338 30.7256 10.671 31.7133C10.5387 31.8853 10.4813 32.0969 10.5078 32.313C10.5343 32.5291 10.6445 32.7187 10.8165 32.8509C11.1692 33.1243 11.6807 33.0582 11.9541 32.7054C12.4083 32.1146 13.0918 31.7794 13.837 31.7794C15.1466 31.7794 16.2093 32.8465 16.2093 34.1562C16.2093 34.5883 16.0902 35.016 15.861 35.3864C15.6449 35.7436 15.7331 36.2066 16.0682 36.4579C16.4695 36.7578 16.6988 37.2164 16.6988 37.7146C16.6988 38.5833 15.9932 39.2888 15.1246 39.2888C14.3441 39.2888 13.6871 38.7244 13.5724 37.9616V37.8337L14.6704 37.1194C14.8512 37.0003 14.979 36.8195 15.0231 36.6078C15.0672 36.3962 15.0276 36.1801 14.9085 35.9949C14.666 35.6201 14.1589 35.5143 13.7885 35.7568L13.5724 35.8979V34.8837C13.5724 34.4384 13.2108 34.0724 12.7611 34.0724C12.3113 34.0724 11.9497 34.434 11.9497 34.8837V37.3795V37.6088C11.6146 37.8646 11.1736 37.9792 10.7591 37.8954C10.6313 37.869 10.499 37.8778 10.3755 37.9131C10.2962 37.9351 10.2212 37.9704 10.1506 38.0189C10.0801 38.0674 10.0139 38.1291 9.96103 38.1953C9.88166 38.2923 9.82874 38.4113 9.80669 38.5392C9.78906 38.6186 9.78906 38.7024 9.79347 38.7817C9.80669 38.9096 9.85079 39.0375 9.92575 39.1477C9.9478 39.1786 9.96985 39.2095 9.9963 39.2359C10.1154 39.3682 10.2697 39.4564 10.4461 39.4917C10.9443 39.5887 11.4647 39.5578 11.9497 39.4123V42.8032C11.9497 43.2486 12.3113 43.6146 12.7611 43.6146C13.2108 43.6146 13.5724 43.253 13.5724 42.8032V40.5191C14.0354 40.7748 14.569 40.9159 15.1246 40.9159C16.8884 40.9159 18.3215 39.4829 18.3215 37.719C18.3215 36.943 18.0481 36.2154 17.5498 35.6378L17.5454 35.6289Z" fill="#70B949"/>
<path d="M25.9767 18.8242H11.6854C11.2268 18.8242 10.8564 19.1946 10.8564 19.6532C10.8564 20.1118 11.2268 20.4822 11.6854 20.4822H25.9767C27.4274 20.4822 28.8164 20.9231 30.0158 21.6728C31.0829 22.3298 31.9824 23.2249 32.6394 24.292C32.6526 24.3096 32.6615 24.3317 32.6747 24.3493C33.4067 25.5311 33.8344 26.9024 33.8344 28.3443V43.7027C33.8344 44.1613 34.2048 44.5317 34.6634 44.5317C35.122 44.5317 35.4924 44.1613 35.4924 43.7027V28.3443C35.4924 23.0926 31.2196 18.8242 25.9722 18.8242H25.9767Z" fill="#0AA562"/>
<path d="M29.3009 24.852C28.0883 23.6482 26.4656 22.9912 24.7194 22.9912C24.7106 22.9912 24.6974 22.9912 24.6886 22.9912H11.6849C11.2263 22.9912 10.8559 23.3616 10.8559 23.8202C10.8559 24.2788 11.2263 24.6492 11.6849 24.6492H24.693C26.0291 24.636 27.2108 25.121 28.1324 26.0338C29.1289 27.0215 29.6757 28.3973 29.6757 29.9097V42.8781H1.0536C0.595008 42.8781 0.224609 43.2485 0.224609 43.7071C0.224609 44.1657 0.595008 44.5361 1.0536 44.5361H31.3337V29.9053C31.3337 27.9475 30.6105 26.1528 29.3009 24.852Z" fill="#70B949"/>
<path d="M37.8907 27.0127H37.8818V27.5198C37.8862 27.3787 37.8907 27.2376 37.8907 27.0965C37.8907 27.07 37.8907 27.0392 37.8907 27.0127Z" fill="#43AD60"/>
<path d="M27.3392 14.6572H11.6854C11.2268 14.6572 10.8564 15.0276 10.8564 15.4862C10.8564 15.9448 11.2268 16.3152 11.6854 16.3152H26.8586C26.9423 16.3152 27.0261 16.3152 27.1055 16.3152C27.2025 16.3152 27.2951 16.3152 27.3921 16.3152C27.4097 16.3152 27.4318 16.3152 27.4494 16.3152C33.076 16.4916 37.6178 20.9805 37.8823 26.5849C37.8867 26.7261 37.8911 26.8672 37.8956 27.0127C37.8956 27.0391 37.8956 27.07 37.8956 27.0965C37.8956 27.2376 37.8956 27.3787 37.8867 27.5198V43.7027C37.8867 44.1613 38.2571 44.5317 38.7157 44.5317C39.1743 44.5317 39.5447 44.1613 39.5447 43.7027V26.8583C39.5447 20.1294 34.0725 14.6572 27.3436 14.6572H27.3392Z" fill="#70B949"/>
<path d="M37.8823 26.8584V27.0083H37.8912C37.8912 26.8716 37.8867 26.7261 37.8779 26.585C37.8779 26.6732 37.8779 26.7658 37.8779 26.8539L37.8823 26.8584Z" fill="#43AD60"/>
<path d="M135.545 35.4173V35.4084C135.518 35.4217 135.487 35.4349 135.461 35.4481C135.487 35.4393 135.518 35.4261 135.545 35.4173Z" fill="#166D9F"/>
<path d="M126.959 34.3062V34.3238C126.999 34.3547 127.038 34.3899 127.074 34.4208C127.034 34.3855 126.994 34.3458 126.959 34.3106V34.3062Z" fill="#166D9F"/>
<path d="M137.4 41.9742C137.211 41.542 136.704 41.348 136.276 41.542C136.095 41.6214 135.919 41.6964 135.747 41.7669C135.663 41.8022 135.584 41.833 135.504 41.8683C135.107 42.0271 134.728 42.1638 134.353 42.2828C129.243 43.8879 126.244 41.5288 124.357 39.4387C121.733 36.5328 119.868 31.4134 119.798 31.2194C118.603 27.6962 116.098 25.1475 112.553 23.8378C109.995 22.8942 107.773 22.9207 107.544 22.9295H103.452C102.98 22.9295 102.601 23.3131 102.601 23.7805C102.601 24.2479 102.984 24.6316 103.452 24.6316H107.583C107.583 24.6316 109.625 24.5742 111.962 25.4341C115.053 26.5717 117.148 28.7059 118.184 31.7706V31.7838C118.268 32.0087 120.203 37.3794 123.092 40.5808C124.917 42.6047 126.853 43.8217 129 44.3024C129.688 44.4567 130.403 44.5317 131.135 44.5317C131.814 44.5317 132.51 44.4655 133.22 44.3332C134.226 44.1436 135.275 43.8173 136.36 43.3631C136.563 43.2794 136.765 43.1956 136.968 43.103C137.4 42.9134 137.594 42.4063 137.4 41.9786V41.9742Z" fill="#EE8508"/>
<path d="M133.392 36.0127C133.136 36.0127 132.881 35.995 132.629 35.9553C131.09 35.726 129.675 34.7912 128.648 33.3229C126.906 30.8359 124.19 24.6141 124.013 24.2084C122.655 21.3334 119.846 18.9699 117.805 17.991C115.547 16.9063 112.994 16.333 110.427 16.333H103.421C102.962 16.333 102.592 15.9626 102.592 15.504C102.592 15.0454 102.962 14.675 103.421 14.675H110.427C113.241 14.675 116.041 15.3056 118.523 16.4962C120.9 17.6382 123.987 20.2487 125.521 23.5161L125.53 23.5382C125.557 23.6043 128.339 29.9981 130.006 32.3748C130.777 33.4816 131.77 34.1519 132.872 34.315C133.957 34.4782 135.072 34.1386 136.108 33.3317C136.47 33.0495 136.99 33.1156 137.273 33.4772C137.555 33.8388 137.489 34.3591 137.127 34.6413C135.976 35.5408 134.671 36.0127 133.388 36.0127H133.392Z" fill="#EE8508"/>
<path d="M137.365 38.0057C137.153 37.5824 136.642 37.4104 136.223 37.6221C135.928 37.7676 135.641 37.8999 135.359 38.0234C131.88 39.4609 129.08 38.5834 126.676 35.3512C125.459 33.7197 124.366 31.1578 123.656 29.2969C123.581 29.1029 123.502 28.9045 123.422 28.7149C122.849 27.2906 122.201 26.0736 121.517 25.0329L121.469 24.9933C121.429 24.9271 121.389 24.861 121.35 24.7992C121.328 24.764 121.306 24.7331 121.284 24.6978C121.253 24.6537 121.226 24.6096 121.195 24.5655C121.169 24.5258 121.143 24.4862 121.112 24.4421C121.076 24.3936 121.041 24.3407 121.006 24.2921C121.001 24.2877 120.997 24.2789 120.993 24.2745C120.971 24.2436 120.953 24.2172 120.931 24.1863C120.904 24.151 120.882 24.1158 120.856 24.0805C120.843 24.0629 120.834 24.0496 120.821 24.032C120.794 23.9967 120.768 23.9614 120.741 23.9262C120.715 23.8909 120.693 23.86 120.666 23.8247C120.666 23.8247 120.666 23.8247 120.662 23.8203C120.653 23.8071 120.644 23.7983 120.635 23.7851C120.609 23.7542 120.587 23.7233 120.56 23.6925C120.543 23.6704 120.521 23.6439 120.503 23.6219C120.49 23.6043 120.477 23.591 120.463 23.5734C120.459 23.569 120.455 23.5602 120.45 23.5558C120.419 23.5161 120.384 23.4764 120.353 23.4367C120.344 23.4279 120.336 23.4147 120.327 23.4058C120.318 23.3926 120.305 23.3794 120.296 23.3661C120.278 23.3441 120.261 23.3221 120.243 23.3044C120.217 23.2735 120.19 23.2427 120.164 23.2162C120.15 23.203 120.137 23.1854 120.124 23.1721C120.12 23.1633 120.111 23.1589 120.106 23.1501C120.084 23.1236 120.058 23.0972 120.036 23.0707C120.005 23.0398 119.978 23.0046 119.948 22.9737C119.934 22.9605 119.925 22.9472 119.912 22.9384C119.886 22.9076 119.855 22.8767 119.828 22.8458C119.802 22.8194 119.776 22.7885 119.749 22.762C119.696 22.7047 119.643 22.6518 119.586 22.5945C119.564 22.568 119.537 22.546 119.511 22.5239C119.471 22.4842 119.432 22.4446 119.388 22.4049C119.361 22.3784 119.335 22.352 119.308 22.3299C119.251 22.277 119.194 22.2197 119.136 22.1668C119.11 22.1447 119.088 22.1227 119.061 22.1006C119.017 22.0609 118.973 22.0257 118.933 21.986C118.907 21.9639 118.88 21.9419 118.854 21.9154C118.792 21.8625 118.731 21.8096 118.669 21.7611C118.642 21.739 118.616 21.717 118.594 21.6994C118.554 21.6685 118.519 21.6376 118.479 21.6068C118.47 21.6023 118.466 21.5935 118.457 21.5891C118.431 21.5671 118.404 21.5494 118.382 21.5274C118.316 21.4789 118.254 21.426 118.188 21.3775C118.162 21.3598 118.135 21.3378 118.109 21.3201C118.06 21.2849 118.007 21.2452 117.959 21.2099C117.937 21.1923 117.91 21.1746 117.888 21.157C117.822 21.1085 117.752 21.0644 117.685 21.0159C117.659 20.9982 117.633 20.9806 117.606 20.963C117.553 20.9277 117.496 20.8924 117.443 20.8571C117.421 20.8439 117.399 20.8307 117.377 20.813C117.306 20.7689 117.236 20.7249 117.165 20.6808C117.139 20.6631 117.112 20.6499 117.086 20.6323C117.024 20.597 116.967 20.5617 116.905 20.5264C116.887 20.5176 116.87 20.5044 116.848 20.4956C116.773 20.4515 116.698 20.4118 116.623 20.3721C116.596 20.3589 116.57 20.3412 116.543 20.328C116.477 20.2927 116.407 20.2574 116.341 20.2222C116.323 20.2133 116.305 20.2045 116.288 20.1957C116.213 20.1604 116.142 20.1207 116.067 20.0855C116.041 20.0722 116.014 20.059 115.988 20.0458C115.908 20.0105 115.829 19.9708 115.754 19.9356C115.741 19.9311 115.728 19.9223 115.714 19.9179C115.644 19.887 115.569 19.8518 115.498 19.8209C115.472 19.8121 115.45 19.7989 115.423 19.79C115.34 19.7548 115.26 19.7239 115.176 19.6886C115.163 19.6842 115.146 19.6754 115.132 19.671C115.062 19.6445 114.987 19.6137 114.912 19.5872C114.885 19.5784 114.863 19.5696 114.837 19.5607C114.753 19.5299 114.669 19.499 114.581 19.4726C114.564 19.4681 114.546 19.4593 114.528 19.4549C114.453 19.4285 114.383 19.4064 114.308 19.3844C114.286 19.3755 114.264 19.3711 114.237 19.3623C114.149 19.3359 114.065 19.3094 113.977 19.2829C113.959 19.2785 113.937 19.2741 113.92 19.2653C113.845 19.2433 113.77 19.2256 113.69 19.2036C113.668 19.1992 113.646 19.1903 113.624 19.1859C113.536 19.1639 113.444 19.1418 113.355 19.1198C113.333 19.1154 113.316 19.111 113.294 19.1066C113.214 19.0889 113.139 19.0713 113.06 19.0536C113.042 19.0536 113.02 19.0448 113.003 19.0404C112.91 19.0228 112.822 19.0051 112.729 18.9875C112.707 18.9875 112.685 18.9787 112.663 18.9743C112.584 18.961 112.5 18.9478 112.421 18.9346C112.403 18.9346 112.39 18.9302 112.372 18.9258C112.279 18.9125 112.187 18.8993 112.09 18.8861C112.068 18.8861 112.046 18.8817 112.024 18.8773C111.94 18.8684 111.852 18.8552 111.768 18.8464C111.755 18.8464 111.741 18.8464 111.728 18.8464C111.631 18.8376 111.539 18.8288 111.442 18.8199C111.42 18.8199 111.393 18.8199 111.371 18.8155C111.278 18.8067 111.19 18.8023 111.098 18.7979C111.089 18.7979 111.084 18.7979 111.076 18.7979C110.979 18.7935 110.882 18.7891 110.78 18.7847C110.758 18.7847 110.736 18.7847 110.714 18.7847C110.679 18.7847 110.643 18.7847 110.608 18.7847H103.469C102.997 18.7847 102.618 19.1683 102.618 19.6357C102.618 20.1031 103.002 20.4867 103.469 20.4867H109.969C111.305 20.5529 117.399 20.9762 120.693 27.0834C121.147 27.9256 121.654 28.8913 122.077 29.9055C122.417 30.7918 122.84 31.8368 123.325 32.8775C123.912 34.1342 124.595 35.3909 125.323 36.3698C126.853 38.429 128.528 39.6681 130.447 40.162C131.046 40.3163 131.664 40.3913 132.299 40.3913C133.666 40.3913 135.143 40.012 136.66 39.3021C136.774 39.2536 136.884 39.2007 136.999 39.1434C137.422 38.9317 137.594 38.4202 137.383 38.0013L137.365 38.0057Z" fill="#E54E2B"/>
<path d="M19.583 7.47412H10.8301V8.74406H19.583V7.47412Z" fill="#262626"/>
<path d="M18.6971 6.74655H17.286V1.23466H11.7168V0H18.6971V6.74655Z" fill="#262626"/>
<path d="M27.6791 5.95725H21.3691V2.32822H26.0917V1.23466H21.3691V0H27.5028V3.55847H22.7802V4.72258H27.6791V5.95725Z" fill="#262626"/>
<path d="M30.1045 11.6853H23.4902V7.3728H24.9013V10.4506H30.1045V11.6853Z" fill="#262626"/>
<path d="M30.1571 0.0131836H28.7549V8.77929H30.1571V0.0131836Z" fill="#262626"/>
<path d="M37.4283 5.97043H32.0928V0.0131836H37.2519V1.24344H33.4994V4.73577H37.4283V5.97043Z" fill="#262626"/>
<path d="M42.7107 8.81897H41.2997V3.58489H39.871V8.81897H38.46V0.0131836H39.871V2.31495H41.2997V0.0131836H42.7107V8.81897Z" fill="#262626"/>
<path d="M53.3203 8.76169H44.5674V7.49176H48.2405V5.95725H45.4537V2.32822H51.0229V1.23466H45.4537V0H52.4339V3.55847H46.8647V4.72258H52.6103V5.95725H49.6471V7.49176H53.3203V8.76169Z" fill="#262626"/>
</svg>
