<?xml version="1.0" encoding="UTF-8"?>
<svg version="1.1" xmlns="http://www.w3.org/2000/svg" width="866" height="288">
<path d="M0 0 C22 0 22 0 27.04296875 3.8125 C28.71069336 6.30175781 28.71069336 6.30175781 30.1875 9 C30.76443604 9.8981543 31.34137207 10.79630859 31.93579102 11.72167969 C33.10849071 13.55484308 34.25094403 15.40773075 35.36132812 17.27929688 C37.36996537 20.61425716 39.57163173 23.78021704 41.82324219 26.95410156 C43.92328124 29.94090847 45.9553352 32.97501647 48 36 C48 24.12 48 12.24 48 0 C55.26 0 62.52 0 70 0 C70 23.76 70 47.52 70 72 C63.07 72 56.14 72 49 72 C47.68 70.02 46.36 68.04 45 66 C44.04800052 64.64990299 43.08780896 63.30552183 42.1171875 61.96875 C41.58867187 61.23914063 41.06015625 60.50953125 40.515625 59.7578125 C39.97421875 59.01273438 39.4328125 58.26765625 38.875 57.5 C33.21075753 49.69405391 27.60613012 41.84858217 22 34 C21.67 46.54 21.34 59.08 21 72 C14.07 72 7.14 72 0 72 C0 48.24 0 24.48 0 0 Z " fill="#FEFEFE" transform="translate(414,79)"/>
<path d="M0 0 C21 0 21 0 27.75 6.6875 C29.3840332 8.9128418 29.3840332 8.9128418 30.48828125 10.82421875 C32.45661158 14.11285382 34.54254629 17.24660177 36.77246094 20.36254883 C37.8604304 21.89167942 38.91405932 23.44508199 39.96484375 25 C42.25286004 28.37273803 44.63111524 31.68356134 47 35 C47.33 23.45 47.66 11.9 48 0 C54.93 0 61.86 0 69 0 C69 23.76 69 47.52 69 72 C62.4 72 55.8 72 49 72 C41.81387277 64.32549519 41.81387277 64.32549519 39.8203125 60.7421875 C36.85474431 55.65501569 33.43278501 50.98248108 29.9375 46.25 C28.86109858 44.75677931 27.78674008 43.26208292 26.71484375 41.765625 C24.84029017 39.15052764 22.9314984 36.5753312 21 34 C21 46.54 21 59.08 21 72 C14.07 72 7.14 72 0 72 C0 48.24 0 24.48 0 0 Z " fill="#FEFEFE" transform="translate(216,79)"/>
<path d="M0 0 C6.22875 -0.04125 12.4575 -0.0825 18.875 -0.125 C20.82003418 -0.14320801 22.76506836 -0.16141602 24.76904297 -0.18017578 C47.43342637 -0.30547802 47.43342637 -0.30547802 55 6 C58.31481043 9.67316832 59.79185195 12.23074155 60.375 17.1875 C59.88923169 22.12614444 58.14018245 25.21130161 55 29 C50.96875 32 50.96875 32 48 32 C48 32.66 48 33.32 48 34 C48.53625 34.0825 49.0725 34.165 49.625 34.25 C54.42114161 35.76457103 57.38623505 38.17626283 60.375 42.1875 C63.17496259 47.65855661 62.59103658 52.85749241 61 58.625 C56.9684254 65.42828213 51.9575503 68.96659351 44.53875732 71.36764526 C40.33185759 72.41550161 36.24713591 72.36987734 31.93359375 72.29296875 C30.70872253 72.28843689 30.70872253 72.28843689 29.45910645 72.28381348 C26.45177298 72.2682923 23.44462179 72.22641043 20.4375 72.1875 C13.693125 72.125625 6.94875 72.06375 0 72 C0 48.24 0 24.48 0 0 Z M22 15 C22 19.29 22 23.58 22 28 C28.91295034 27.72728459 28.91295034 27.72728459 35 25 C36.08805146 22.6433774 36.08805146 22.6433774 36 20 C34.78198446 17.52520122 34.78198446 17.52520122 32 16 C28.63543046 15.36815595 25.43500654 15.18078982 22 15 Z M22 43 C22 47.29 22 51.58 22 56 C23.7325 56.04125 25.465 56.0825 27.25 56.125 C28.22453125 56.14820313 29.1990625 56.17140625 30.203125 56.1953125 C33.05408886 55.99622284 34.63933478 55.57920363 37 54 C38.09616096 51.68805807 38.09616096 51.68805807 38 49 C36.24886475 45.28738773 36.24886475 45.28738773 33 43 C29.32984725 42.8622315 25.67388652 42.95728039 22 43 Z " fill="#FEFEFE" transform="translate(609,79)"/>
<path d="M0 0 C0 6.27 0 12.54 0 19 C-4.455 18.01 -4.455 18.01 -9 17 C-20.66699008 15.19550239 -20.66699008 15.19550239 -31.51953125 18.76171875 C-35.43703337 22.038363 -37.53527238 24.88799619 -38 30 C-38.39406479 36.85164262 -38.31299091 42.3218 -33.625 47.75 C-28.82129818 51.8674587 -25.18986745 52.38101325 -19 53 C-19 50.03 -19 47.06 -19 44 C-23.29 44 -27.58 44 -32 44 C-32 38.06 -32 32.12 -32 26 C-20.12 26 -8.24 26 4 26 C4 39.2 4 52.4 4 66 C-9.77884368 71.01048861 -27.55645056 74.44133423 -41.97265625 68.96875 C-50.82831664 64.73714349 -57.49411797 59.21506116 -61.4375 50 C-64.40777936 40.8469503 -64.63846735 28.0346484 -61 19 C-56.60696414 10.39262805 -49.81728337 3.20175953 -40.75 -0.375 C-26.66488006 -4.75095959 -14.01227406 -4.67075802 0 0 Z " fill="#FEFEFE" transform="translate(575,81)"/>
<path d="M0 0 C8.25781814 8.25781814 11.31260405 17.88348703 11.5625 29.4375 C11.2203516 39.96198468 8.66005406 48.39283403 1.359375 56.296875 C-7.84137027 64.77315214 -16.64393584 66.67927569 -28.953125 66.4609375 C-39.87138718 65.85436738 -46.99495687 61.28938587 -54.5 53.625 C-60.91505503 45.87408683 -62.46557394 36.61282216 -62.12890625 26.7734375 C-60.94344568 15.74987634 -57.23073404 6.64073855 -48.61328125 -0.52734375 C-32.85092224 -11.77831205 -15.81755377 -10.06571604 0 0 Z M-33.75 15.25 C-37.68107968 21.75661465 -38.81185934 28.15809182 -37.25390625 35.62890625 C-35.81741725 40.55517078 -34.41254498 43.64764932 -29.75 46.25 C-26.0347218 47.43572709 -24.3102694 47.45169698 -20.625 46.125 C-16.57076599 43.48093434 -14.28249007 40.8474702 -12.75 36.25 C-12.03706961 28.326288 -12.06469129 21.81970443 -16.265625 14.921875 C-18.72367538 12.15333405 -20.99847256 11.34802532 -24.625 10.875 C-28.68145679 11.36177481 -30.63880113 12.6227654 -33.75 15.25 Z " fill="#FEFEFE" transform="translate(374.75,85.75)"/>
<path d="M0 0 C7.26 0 14.52 0 22 0 C22.04898438 2.85527344 22.09796875 5.71054688 22.1484375 8.65234375 C22.20257252 11.44251379 22.25983063 14.23260367 22.31738281 17.02270508 C22.35547454 18.94972671 22.39036057 20.87681466 22.421875 22.80395508 C22.46795891 25.58699111 22.52587815 28.36957831 22.5859375 31.15234375 C22.59748871 32.00271713 22.60903992 32.85309052 22.62094116 33.72923279 C22.66462426 43.72782994 22.66462426 43.72782994 27.125 52.125 C31.11612874 53.33969135 33.91101788 52.7623526 38 52 C39.81341895 45.76438395 40.3328487 40.07017892 40.4140625 33.59375 C40.43342865 32.6284436 40.4527948 31.66313721 40.4727478 30.6685791 C40.53210018 27.61247343 40.57875038 24.55632918 40.625 21.5 C40.66322064 19.41665105 40.7022747 17.33331722 40.7421875 15.25 C40.83931968 10.1667493 40.9192398 5.08364212 41 0 C48.59 0 56.18 0 64 0 C64.04632393 5.44048826 64.08602222 10.88027122 64.10986328 16.32080078 C64.11981926 18.16522562 64.13338892 20.00963512 64.15087891 21.85400391 C64.45044548 54.29530124 64.45044548 54.29530124 55.75 64.6875 C45.60476355 73.21872156 35.89655702 73.88580488 23 73 C15.54986121 71.71094329 9.52018114 68.08022139 4.75 62.25 C0.44809033 54.26073919 -0.42607698 47.18625546 -0.29296875 38.18359375 C-0.28872391 37.08652603 -0.28447906 35.98945831 -0.28010559 34.85914612 C-0.26342927 31.38500522 -0.22579717 27.91146301 -0.1875 24.4375 C-0.17243891 22.06966989 -0.15875301 19.7018306 -0.14648438 17.33398438 C-0.11612497 11.55557822 -0.05738073 5.7784524 0 0 Z " fill="#FEFEFE" transform="translate(698,79)"/>
<path d="M0 0 C0 1.65 0 3.3 0 5 C1.65 5 3.3 5 5 5 C5 4.01 5 3.02 5 2 C7.64 1.34 10.28 0.68 13 0 C13.495 1.98 13.495 1.98 14 4 C14.99 4.33 15.98 4.66 17 5 C17.6875 7.0625 17.6875 7.0625 18 9 C18.680625 8.34 19.36125 7.68 20.0625 7 C23.76272533 4.48069765 25.6031656 4.2933659 30 5 C32.9375 7.0625 32.9375 7.0625 35 10 C35.61370235 14.82194702 34.75408915 18.50514654 33 23 C31.2507786 23.08142927 29.50045458 23.13938541 27.75 23.1875 C26.77546875 23.22230469 25.8009375 23.25710937 24.796875 23.29296875 C21.62531258 22.96075202 20.32959693 22.11327721 18 20 C17.505 21.485 17.505 21.485 17 23 C9.5184669 23.36794425 9.5184669 23.36794425 7.0625 21.625 C4.70717952 18.02274515 4.92090147 15.2713208 5 11 C3.35 11 1.7 11 0 11 C0 12.98 0 14.96 0 17 C0.99 17 1.98 17 3 17 C3 18.98 3 20.96 3 23 C-4.34159292 23.36106195 -4.34159292 23.36106195 -6.9375 21.9375 C-8.53409498 19.02606209 -8.76139049 16.28088083 -9 13 C-8.67 12.34 -8.34 11.68 -8 11 C-8.66 11 -9.32 11 -10 11 C-10 12.98 -10 14.96 -10 17 C-10.66 17 -11.32 17 -12 17 C-12 18.98 -12 20.96 -12 23 C-21.7003861 23.61158301 -21.7003861 23.61158301 -26.1875 21.5 C-28.27390474 18.62220036 -28.65187395 16.51414954 -28.43359375 12.96875 C-27.75941551 9.90761636 -26.21211361 8.14705145 -24 6 C-20.98131566 4.49065783 -18.32702771 4.82489328 -15 5 C-14.01 5.66 -13.02 6.32 -12 7 C-11.443125 6.21625 -10.88625 5.4325 -10.3125 4.625 C-7.17064975 1.0585754 -4.72045566 0 0 0 Z M-19 10 C-19.33 10.66 -19.66 11.32 -20 12 C-19.01 11.67 -18.02 11.34 -17 11 C-17.66 10.67 -18.32 10.34 -19 10 Z M26 10 C25.67 10.66 25.34 11.32 25 12 C25.99 11.67 26.98 11.34 28 11 C27.34 10.67 26.68 10.34 26 10 Z M13 11 C13.33 12.98 13.66 14.96 14 17 C14.99 17 15.98 17 17 17 C17 15.02 17 13.04 17 11 C15.68 11 14.36 11 13 11 Z M-20 16 C-19.67 16.66 -19.34 17.32 -19 18 C-17.68 18 -16.36 18 -15 18 C-15.33 17.34 -15.66 16.68 -16 16 C-17.32 16 -18.64 16 -20 16 Z M30 16 C29.01 16.66 28.02 17.32 27 18 C28.65 17.67 30.3 17.34 32 17 C31.34 16.67 30.68 16.34 30 16 Z " fill="#FDFDFD" transform="translate(587,201)"/>
<path d="M0 0 C0 2.64 0 5.28 0 8 C-1.093125 7.814375 -2.18625 7.62875 -3.3125 7.4375 C-6.93624133 6.7421932 -6.93624133 6.7421932 -10 8 C-8.04175306 8.16767864 -6.08339945 8.33411205 -4.125 8.5 C-3.03445313 8.5928125 -1.94390625 8.685625 -0.8203125 8.78125 C0.78329564 8.90562958 2.39157551 9 4 9 C4.556875 8.505 5.11375 8.01 5.6875 7.5 C9.00321813 5.34926392 11.12299481 5.45585892 15 6 C17.9375 8.0625 17.9375 8.0625 20 11 C20.3125 14.8125 20.3125 14.8125 20 18 C19.34 18 18.68 18 18 18 C18.185625 18.804375 18.37125 19.60875 18.5625 20.4375 C18.706875 21.283125 18.85125 22.12875 19 23 C17.27665979 24.72334021 15.0331379 24.21271834 12.6875 24.25 C11.72199219 24.27578125 10.75648438 24.3015625 9.76171875 24.328125 C6.63246324 23.95633227 5.30890577 23.08404796 3 21 C2.46246094 21.48726562 1.92492187 21.97453125 1.37109375 22.4765625 C-1.59311862 24.38108115 -3.43753536 24.40148145 -6.9375 24.375 C-7.95714844 24.38273437 -8.97679687 24.39046875 -10.02734375 24.3984375 C-14.41139361 23.81082504 -17.05559861 22.17236035 -19.8125 18.75 C-21.56900139 14.68231257 -21.72986508 11.36476284 -20.4140625 7.1015625 C-18.64143314 3.24731335 -16.72249701 1.50941164 -12.75 0 C-8.19224075 -1.24714805 -4.59993379 -0.91998676 0 0 Z M-12 9 C-12 10.98 -12 12.96 -12 15 C-11.67 15 -11.34 15 -11 15 C-11 13.02 -11 11.04 -11 9 C-11.33 9 -11.66 9 -12 9 Z M11 11 C10.67 11.66 10.34 12.32 10 13 C10.99 12.67 11.98 12.34 13 12 C12.34 11.67 11.68 11.34 11 11 Z M-11 15 C-11 15.66 -11 16.32 -11 17 C-9.35 17 -7.7 17 -6 17 C-6 16.34 -6 15.68 -6 15 C-7.65 15 -9.3 15 -11 15 Z M11 19 C12.65 19 14.3 19 16 19 C16.33 18.34 16.66 17.68 17 17 C14.53721199 17 13.14775881 17.85452863 11 19 Z " fill="#FDFDFD" transform="translate(360,200)"/>
<path d="M0 0 C3 0.125 3 0.125 4 1.125 C4.14115161 3.79558851 4.04247107 6.44932238 4 9.125 C5.093125 8.898125 6.18625 8.67125 7.3125 8.4375 C11 8.125 11 8.125 12.71875 9.125 C14.68179276 12.18926187 14.31533921 15.30183868 14.1875 18.8125 C14.16719727 19.8653418 14.16719727 19.8653418 14.14648438 20.93945312 C14.11120182 22.66829829 14.05739583 24.39674765 14 26.125 C11.36 26.125 8.72 26.125 6 26.125 C6 22.165 6 18.205 6 14.125 C5.34 14.125 4.68 14.125 4 14.125 C4 18.085 4 22.045 4 26.125 C1.22754986 26.25987595 -1.53837088 26.35900807 -4.3125 26.4375 C-5.09818359 26.47939453 -5.88386719 26.52128906 -6.69335938 26.56445312 C-8.89750876 26.61134992 -10.84409124 26.59084101 -13 26.125 C-15.75294885 23.03322667 -15.9827031 21.47670365 -16.1875 17.3125 C-16.125625 16.260625 -16.06375 15.20875 -16 14.125 C-16.66 14.125 -17.32 14.125 -18 14.125 C-18 12.145 -18 10.165 -18 8.125 C-17.34 8.125 -16.68 8.125 -16 8.125 C-16 7.135 -16 6.145 -16 5.125 C-13.36 4.465 -10.72 3.805 -8 3.125 C-8 4.775 -8 6.425 -8 8.125 C-7.01 8.125 -6.02 8.125 -5 8.125 C-4.855625 6.990625 -4.71125 5.85625 -4.5625 4.6875 C-3.84768212 0.16032009 -3.84768212 0.16032009 0 0 Z M-5 9.125 C-5 10.775 -5 12.425 -5 14.125 C-5.99 14.125 -6.98 14.125 -8 14.125 C-8 16.105 -8 18.085 -8 20.125 C-6.68 19.795 -5.36 19.465 -4 19.125 C-4 15.825 -4 12.525 -4 9.125 C-4.33 9.125 -4.66 9.125 -5 9.125 Z " fill="#FDFDFD" transform="translate(664,197.875)"/>
<path d="M0 0 C0.99 0 1.98 0 3 0 C6.93441352 7.26461354 9.46970585 13.65805845 8 22 C6.3125 25.1875 6.3125 25.1875 4 27 C1.25 27.3125 1.25 27.3125 -1 27 C-0.649375 27.845625 -0.29875 28.69125 0.0625 29.5625 C1.14394372 33.52779366 0.9748045 36.02579702 0 40 C-1.1875 42 -1.1875 42 -3 43 C-6.55235172 42.92441805 -8.43472482 42.43965848 -11.25 40.25 C-15.06962783 35.33904993 -15.26559462 30.73847622 -15.125 24.6875 C-15.11597656 23.94693359 -15.10695312 23.20636719 -15.09765625 22.44335938 C-15.07424213 20.62876533 -15.03837615 18.81433929 -15 17 C-10.31908701 17 -9.37898396 17.99645871 -6 21 C-6.103125 19.9275 -6.20625 18.855 -6.3125 17.75 C-6.35609668 11.67916272 -3.61696958 6.36264258 -1 1 C-0.67 0.67 -0.34 0.34 0 0 Z " fill="#FCC31A" transform="translate(176,45)"/>
<path d="M0 0 C3.52429674 1.51271184 5.89956877 3.57014454 8.625 6.25 C9.40101563 6.99765625 10.17703125 7.7453125 10.9765625 8.515625 C14.1432773 12.40371498 15.02176551 15.71583467 14.9375 20.6875 C14 24 14 24 11.5 25.875 C10.675 26.24625 9.85 26.6175 9 27 C8.67 27.33 8.34 27.66 8 28 C8.42152344 28.48210937 8.84304687 28.96421875 9.27734375 29.4609375 C9.82519531 30.09257813 10.37304688 30.72421875 10.9375 31.375 C11.48277344 32.00148437 12.02804688 32.62796875 12.58984375 33.2734375 C14.86220922 36.05566891 15.18042355 37.90649503 15.25 41.4375 C15.27578125 42.21996094 15.3015625 43.00242188 15.328125 43.80859375 C14.92055954 46.53054878 14.17722653 47.36452467 12 49 C9.125 49.5625 9.125 49.5625 6 49 C3.4122924 46.74351897 1.53745983 44.07491967 0 41 C-0.08306358 39.65972895 -0.10736185 38.3154637 -0.09765625 36.97265625 C-0.09443359 36.18052734 -0.09121094 35.38839844 -0.08789062 34.57226562 C-0.07951172 33.74404297 -0.07113281 32.91582031 -0.0625 32.0625 C-0.05798828 31.23814453 -0.05347656 30.41378906 -0.04882812 29.56445312 C-0.04010264 28.03001478 -0.02932733 26.49558578 -0.01586914 24.96118164 C0.00834532 21.9686469 -0.03876228 19.88371315 -1 17 C-1.09504628 14.85586777 -1.12987226 12.7087323 -1.125 10.5625 C-1.12886719 8.86287109 -1.12886719 8.86287109 -1.1328125 7.12890625 C-1.02325193 4.54778817 -0.75864877 2.45055595 0 0 Z " fill="#FCC517" transform="translate(162,85)"/>
<path d="M0 0 C0.99 0 1.98 0 3 0 C9.15452931 14.41918295 9.15452931 14.41918295 8 21 C6.58575789 23.68417381 5.34912538 24.91188855 3 27 C0.1875 27.375 0.1875 27.375 -2 27 C-1.67773438 27.56589844 -1.35546875 28.13179687 -1.0234375 28.71484375 C0.63218397 32.4115558 0.60817845 36.02806913 0 40 C-1.6875 42.125 -1.6875 42.125 -4 43 C-7.72507589 43 -8.93588358 42.05683046 -11.75 39.5625 C-14.55510888 36.36779266 -15.12668838 34.98974935 -15.09765625 30.8671875 C-15.09443359 30.06152344 -15.09121094 29.25585938 -15.08789062 28.42578125 C-15.07951172 27.58402344 -15.07113281 26.74226563 -15.0625 25.875 C-15.05798828 25.02550781 -15.05347656 24.17601563 -15.04882812 23.30078125 C-15.03702874 21.20049091 -15.01909306 19.1002367 -15 17 C-11.31245243 17.49831724 -9.39509338 18.10067643 -7 21 C-6.90203125 20.2265625 -6.8040625 19.453125 -6.703125 18.65625 C-4.69942197 4.69942197 -4.69942197 4.69942197 0 0 Z " fill="#FAC51A" transform="translate(110,45)"/>
<path d="M0 0 C0 1.32 0 2.64 0 4 C0.99 4 1.98 4 3 4 C3 5.98 3 7.96 3 10 C2.01 10 1.02 10 0 10 C0 11.98 0 13.96 0 16 C0.99 16 1.98 16 3 16 C3 17.98 3 19.96 3 22 C-4.35678392 22.48241206 -4.35678392 22.48241206 -7 20.5 C-8.44831655 16.87920862 -8.19435828 13.88716564 -8 10 C-8.99 9.67 -9.98 9.34 -11 9 C-11.99 10.32 -12.98 11.64 -14 13 C-13.34 14.11375 -12.68 15.2275 -12 16.375 C-10 19.75 -10 19.75 -10 22 C-11.45792884 22.05399736 -12.91642712 22.09279177 -14.375 22.125 C-15.59316406 22.15980469 -15.59316406 22.15980469 -16.8359375 22.1953125 C-19 22 -19 22 -21 20 C-21.66 20.66 -22.32 21.32 -23 22 C-25.1640625 22.1953125 -25.1640625 22.1953125 -27.625 22.125 C-28.44226563 22.10695312 -29.25953125 22.08890625 -30.1015625 22.0703125 C-30.72804687 22.04710937 -31.35453125 22.02390625 -32 22 C-30.99088542 20.2421875 -29.98177083 18.484375 -28.97265625 16.7265625 C-28.28280949 15.50201525 -27.62855462 14.25710923 -27 13 C-27.7691998 11.27317419 -27.7691998 11.27317419 -28.9375 9.5 C-31 6.2 -31 6.2 -31 4 C-29.54257537 3.91903197 -28.08387193 3.86082226 -26.625 3.8125 C-25.81289062 3.77769531 -25.00078125 3.74289063 -24.1640625 3.70703125 C-23.44992188 3.80371094 -22.73578125 3.90039062 -22 4 C-21.01 5.485 -21.01 5.485 -20 7 C-19.34 6.01 -18.68 5.02 -18 4 C-15.6171875 3.70703125 -15.6171875 3.70703125 -12.875 3.8125 C-11.96492188 3.83957031 -11.05484375 3.86664063 -10.1171875 3.89453125 C-9.41851562 3.92933594 -8.71984375 3.96414062 -8 4 C-8 3.01 -8 2.02 -8 1 C-5.07175348 0.02391783 -3.04386724 -0.08226668 0 0 Z " fill="#FCFCFC" transform="translate(175,202)"/>
<path d="M0 0 C0 1.32 0 2.64 0 4 C0.99 4.33 1.98 4.66 3 5 C3 6.98 3 8.96 3 11 C2.01 11.33 1.02 11.66 0 12 C0 13.65 0 15.3 0 17 C0.99 17 1.98 17 3 17 C3 18.98 3 20.96 3 23 C-4.4815331 23.36794425 -4.4815331 23.36794425 -6.9375 21.625 C-9.29282048 18.02274515 -9.07909853 15.2713208 -9 11 C-9.66 11 -10.32 11 -11 11 C-11 14.96 -11 18.92 -11 23 C-13.45862401 23.05383848 -15.9160755 23.09359038 -18.375 23.125 C-19.42300781 23.15013672 -19.42300781 23.15013672 -20.4921875 23.17578125 C-22.32897486 23.19344267 -24.16601963 23.10303261 -26 23 C-28 21 -28 21 -28.1875 17.5 C-28 14 -28 14 -27 12 C-26.960008 10.00039988 -26.95653201 7.99952758 -27 6 C-23.30624122 4.76874707 -19.84512599 4.53579968 -16 5 C-13.5 6.5 -13.5 6.5 -12 8 C-11.67 7.01 -11.34 6.02 -11 5 C-10.34 5 -9.68 5 -9 5 C-8.67 4.01 -8.34 3.02 -8 2 C-5.10441559 0.5522078 -3.25811062 0 0 0 Z M-23 10 C-23.66 10.66 -24.32 11.32 -25 12 C-23.02 11.67 -21.04 11.34 -19 11 C-20.89179203 10.3185177 -20.89179203 10.3185177 -23 10 Z " fill="#FCFCFC" transform="translate(462,201)"/>
<path d="M0 0 C2.97 0 5.94 0 9 0 C9 3.96 9 7.92 9 12 C9.66 12 10.32 12 11 12 C10.98839844 11.21753906 10.97679687 10.43507812 10.96484375 9.62890625 C10.95582031 8.61699219 10.94679687 7.60507813 10.9375 6.5625 C10.92589844 5.55316406 10.91429687 4.54382813 10.90234375 3.50390625 C11 1 11 1 12 0 C14.31 0 16.62 0 19 0 C19.495 7.92 19.495 7.92 20 16 C20.33 10.72 20.66 5.44 21 0 C25.29 0 29.58 0 34 0 C34 2.31 34 4.62 34 7 C32.68 7.33 31.36 7.66 30 8 C29.67 11.3 29.34 14.6 29 18 C24.89596637 18.08694042 20.79216871 18.14037149 16.6875 18.1875 C14.93663086 18.22520508 14.93663086 18.22520508 13.15039062 18.26367188 C12.03212891 18.27333984 10.91386719 18.28300781 9.76171875 18.29296875 C8.73006592 18.3086792 7.69841309 18.32438965 6.63549805 18.34057617 C4 18 4 18 2.18286133 16.71606445 C-0.87496526 12.27984917 -0.10886558 5.22554772 0 0 Z " fill="#FDFDFD" transform="translate(213,206)"/>
<path d="M0 0 C9 0 9 0 11.19140625 1.75 C11.87009766 2.86375 11.87009766 2.86375 12.5625 4 C13.03816406 4.7425 13.51382813 5.485 14.00390625 6.25 C14.33261719 6.8275 14.66132812 7.405 15 8 C15.33 5.36 15.66 2.72 16 0 C18.64 0 21.28 0 24 0 C24 7.92 24 15.84 24 24 C17 24 17 24 14.8203125 22.1015625 C14.26085937 21.28429687 13.70140625 20.46703125 13.125 19.625 C12.55007812 18.81289062 11.97515625 18.00078125 11.3828125 17.1640625 C10 15 10 15 9 13 C8.67 16.63 8.34 20.26 8 24 C5.36 24 2.72 24 0 24 C0 16.08 0 8.16 0 0 Z " fill="#FCFCFC" transform="translate(100,200)"/>
<path d="M0 0 C2.536875 -0.103125 5.07375 -0.20625 7.6875 -0.3125 C8.47729248 -0.35802002 9.26708496 -0.40354004 10.08081055 -0.45043945 C14.31338649 -0.53338916 15.61022893 -0.32522942 19.01953125 2.51953125 C19.67308594 3.33808594 20.32664062 4.15664062 21 5 C20.62875 5.928125 20.2575 6.85625 19.875 7.8125 C19.58625 8.864375 19.2975 9.91625 19 11 C19.99 12.485 19.99 12.485 21 14 C21.4375 16.9375 21.4375 16.9375 21 20 C18.90166226 22.27387961 17.21091337 23.79841317 14.08911133 24.31811523 C11.93778523 24.39320559 9.83840636 24.34917471 7.6875 24.25 C5.150625 24.1675 2.61375 24.085 0 24 C0 16.08 0 8.16 0 0 Z M9 6 C9.33 6.99 9.66 7.98 10 9 C10.66 8.67 11.32 8.34 12 8 C12 7.34 12 6.68 12 6 C11.01 6 10.02 6 9 6 Z M9 15 C9 15.99 9 16.98 9 18 C10.32 17.67 11.64 17.34 13 17 C13 16.34 13 15.68 13 15 C11.68 15 10.36 15 9 15 Z " fill="#FDFDFD" transform="translate(537,200)"/>
<path d="M0 0 C8 0 8 0 10.3125 1.96875 C11.1478125 3.22171875 11.1478125 3.22171875 12 4.5 C12.5775 5.3353125 13.155 6.170625 13.75 7.03125 C14.1625 7.6809375 14.575 8.330625 15 9 C15.33 6.03 15.66 3.06 16 0 C18.31 0 20.62 0 23 0 C23.97758625 5.45275886 23.97344509 10.42516763 23.5625 15.9375 C23.51029297 16.71673828 23.45808594 17.49597656 23.40429688 18.29882812 C23.27601936 20.19966772 23.13892679 22.09990904 23 24 C19.77734375 24.34375 19.77734375 24.34375 16 24 C13.56640625 21.59375 13.56640625 21.59375 11.5625 18.5 C10.88316406 17.4790625 10.20382812 16.458125 9.50390625 15.40625 C9.00761719 14.6121875 8.51132812 13.818125 8 13 C7.67 16.63 7.34 20.26 7 24 C4.69 24 2.38 24 0 24 C0 16.08 0 8.16 0 0 Z " fill="#FDFDFD" transform="translate(258,200)"/>
<path d="M0 0 C2.63088728 1.81440502 3.55319104 3.29062395 4.8125 6.25 C5.5500871 11.06653263 5.29134841 14.34183923 3 18.6875 C0.69949238 21.38238035 -0.91108796 23.06394672 -4.4921875 23.5859375 C-8.76026853 23.65080195 -11.43346584 23.68985326 -15.1875 21.5 C-18.73191354 17.51253476 -19.66993421 14.76865697 -19.49609375 9.27734375 C-18.96319909 5.7764282 -17.53731974 3.84082689 -15.1875 1.25 C-9.53123507 -1.99711505 -6.02912578 -2.06712884 0 0 Z M-9.1875 6.25 C-10.39311184 7.23267859 -10.39311184 7.23267859 -10.28515625 9.09765625 C-10.27355469 9.82855469 -10.26195312 10.55945313 -10.25 11.3125 C-10.229375 12.611875 -10.20875 13.91125 -10.1875 15.25 C-7.7125 15.745 -7.7125 15.745 -5.1875 16.25 C-3.56800989 13.67786866 -3.14341249 12.57330841 -3.5625 9.5 C-3.76875 8.7575 -3.975 8.015 -4.1875 7.25 C-5.84364657 6.86781233 -7.51207024 6.53604898 -9.1875 6.25 Z " fill="#FDFDFD" transform="translate(207.1875,200.75)"/>
<path d="M0 0 C1.27875 -0.061875 2.5575 -0.12375 3.875 -0.1875 C4.95394531 -0.23970703 4.95394531 -0.23970703 6.0546875 -0.29296875 C6.69664062 -0.19628906 7.33859375 -0.09960938 8 0 C8.66 0.99 9.32 1.98 10 3 C10.33 2.01 10.66 1.02 11 0 C13.33294775 -0.04241723 15.66702567 -0.04092937 18 0 C19 1 19 1 19.0625 3.5625 C19.041875 4.366875 19.02125 5.17125 19 6 C19.66 6 20.32 6 21 6 C20.979375 5.195625 20.95875 4.39125 20.9375 3.5625 C21 1 21 1 22 0 C23.99958364 -0.04080783 26.00045254 -0.04254356 28 0 C27.41632611 6.30367803 25.95928381 11.98660063 24 18 C21.36 18 18.72 18 16 18 C15.34 16.68 14.68 15.36 14 14 C13.34 15.32 12.68 16.64 12 18 C9.36 18 6.72 18 4 18 C3.32873871 15.5636811 2.66283646 13.12611117 2 10.6875 C1.71382813 9.65206055 1.71382813 9.65206055 1.421875 8.59570312 C0.62283816 5.64212051 0 3.07440781 0 0 Z " fill="#FCFCFC" transform="translate(301,206)"/>
<path d="M0 0 C2.64 0 5.28 0 8 0 C8.33 5.28 8.66 10.56 9 16 C9.99 16 10.98 16 12 16 C12.33 10.72 12.66 5.44 13 0 C15.64 0 18.28 0 21 0 C21.13530844 3.06398451 21.2342407 6.12197126 21.3125 9.1875 C21.35439453 10.05181641 21.39628906 10.91613281 21.43945312 11.80664062 C21.52496865 16.27055102 21.46229786 18.35523767 18.79296875 22.078125 C14.51829981 25.01957551 11.00551454 24.90411593 6 24 C2.44319828 21.89495409 1.30531064 20.91593192 0 17 C-0.07973476 15.66474283 -0.10771338 14.32587917 -0.09765625 12.98828125 C-0.09443359 12.23095703 -0.09121094 11.47363281 -0.08789062 10.69335938 C-0.07951172 9.90767578 -0.07113281 9.12199219 -0.0625 8.3125 C-0.05798828 7.51521484 -0.05347656 6.71792969 -0.04882812 5.89648438 C-0.0370585 3.93095743 -0.01912348 1.96546915 0 0 Z " fill="#FDFDFD" transform="translate(729,200)"/>
<path d="M0 0 C11.90909091 0 11.90909091 0 17 1 C19.49118953 4.7367843 19.2065226 6.74451819 19.125 11.1875 C19.10695313 12.45980469 19.08890625 13.73210937 19.0703125 15.04296875 C19.04710937 16.01878906 19.02390625 16.99460938 19 18 C16.03 18 13.06 18 10 18 C10 14.37 10 10.74 10 7 C9.67 7 9.34 7 9 7 C8.67 10.63 8.34 14.26 8 18 C5.36 18 2.72 18 0 18 C0 12.06 0 6.12 0 0 Z " fill="#FDFDFD" transform="translate(381,206)"/>
<path d="M0 0 C1.19625 0.020625 2.3925 0.04125 3.625 0.0625 C6.54622622 0.11225186 6.54622622 0.11225186 9.125 -0.1875 C11.625 0.0625 11.625 0.0625 13.26953125 1.625 C15.12657192 4.96446218 14.91788027 7.51881038 14.8125 11.3125 C14.78542969 12.57578125 14.75835938 13.8390625 14.73046875 15.140625 C14.69566406 16.10484375 14.66085937 17.0690625 14.625 18.0625 C11.985 18.0625 9.345 18.0625 6.625 18.0625 C6.625 14.1025 6.625 10.1425 6.625 6.0625 C5.635 6.5575 5.635 6.5575 4.625 7.0625 C4.625 10.6925 4.625 14.3225 4.625 18.0625 C1.655 18.0625 -1.315 18.0625 -4.375 18.0625 C-4.40184312 15.24993719 -4.42176188 12.43762759 -4.4375 9.625 C-4.44587891 8.82255859 -4.45425781 8.02011719 -4.46289062 7.19335938 C-4.4715143 5.14954779 -4.4272815 3.10566098 -4.375 1.0625 C-3.375 0.0625 -3.375 0.0625 0 0 Z " fill="#FDFDFD" transform="translate(500.375,205.9375)"/>
<path d="M0 0 C3.33333333 0 6.66666667 0 10 0 C10.804375 -0.061875 11.60875 -0.12375 12.4375 -0.1875 C15 0 15 0 16.6484375 1.03125 C18.72319752 4.05344378 18.31583868 7.16312242 18.1875 10.6875 C18.16719727 11.7403418 18.16719727 11.7403418 18.14648438 12.81445312 C18.11120182 14.54329829 18.05739583 16.27174765 18 18 C15.36 18 12.72 18 10 18 C10 14.04 10 10.08 10 6 C9.34 6 8.68 6 8 6 C8 9.96 8 13.92 8 18 C5.36 18 2.72 18 0 18 C-1.04167441 13.90274731 -0.94409525 10.38504776 -0.5625 6.1875 C-0.46066406 5.02605469 -0.35882812 3.86460937 -0.25390625 2.66796875 C-0.17011719 1.78753906 -0.08632813 0.90710938 0 0 Z " fill="#FDFDFD" transform="translate(699,206)"/>
<path d="M0 0 C0.99 0.33 1.98 0.66 3 1 C3.44852597 18.96595695 3.44852597 18.96595695 -0.2578125 23.55859375 C-2.91211403 26.12256564 -4.55124568 27 -8.25 27 C-11 26 -11 26 -13 23 C-13.44898216 18.56531659 -12.98139419 14.52076633 -10.54296875 10.7421875 C-8.77768653 8.71922791 -6.94656765 6.84821476 -5 5 C-4.02013534 4.00068393 -3.04086132 3.00078794 -2.0625 2 C-1.381875 1.34 -0.70125 0.68 0 0 Z " fill="#F6AA24" transform="translate(158,120)"/>
<path d="M0 0 C0.99 0.33 1.98 0.66 3 1 C3.08152344 3.54232342 3.14073716 6.08199202 3.1875 8.625 C3.21263672 9.33785156 3.23777344 10.05070312 3.26367188 10.78515625 C3.33007647 15.61055717 2.65255868 18.81305726 0 23 C-2.875 25.5 -2.875 25.5 -6 27 C-9.0512137 26.44523387 -10.3803204 25.73234861 -12.375 23.375 C-13.34452576 19.69080212 -13.22222778 16.56321432 -12 13 C-9.95717025 10.02612184 -7.56251098 7.53014242 -5 5 C-4.48050781 4.46761719 -3.96101563 3.93523437 -3.42578125 3.38671875 C-2.30006381 2.241648 -1.15276715 1.11783482 0 0 Z " fill="#F5AA2A" transform="translate(124,85)"/>
<path d="M0 0 C0.99 0.33 1.98 0.66 3 1 C3.56956067 17.39069038 3.56956067 17.39069038 0 23 C-2.37814279 25.54215264 -3.5988855 25.94269793 -7.0625 26.4375 C-10 26 -10 26 -11.9375 24.5625 C-13.61064252 20.52727393 -13.22870157 17.15028084 -12 13 C-9.08639545 7.70253719 -4.9564788 3.41446317 0 0 Z " fill="#FCA81A" transform="translate(191,108)"/>
<path d="M0 0 C6.96591713 3.25381655 11.90945923 7.95356703 15 15 C15.44455859 18.74699387 15.45583282 21.01236222 13.875 24.4375 C12 26 12 26 9.125 26.5625 C4.87675457 25.79781582 3.57713171 24.43617561 1 21 C-1.40213261 14.13676396 -1.98580476 7.0535785 0 0 Z " fill="#F8C31D" transform="translate(96,108)"/>
<path d="M0 0 C3.80472609 2.06865352 6.42468158 4.28965977 9.25 7.5625 C9.93578125 8.34753906 10.6215625 9.13257812 11.328125 9.94140625 C13.87200519 13.07370733 14.17985918 14.95700828 14.25 18.9375 C14.28867188 20.25041016 14.28867188 20.25041016 14.328125 21.58984375 C14 24 14 24 12.6640625 25.81640625 C11 27 11 27 8.125 27 C4.24782426 25.75930376 2.55389507 24.13764251 0 21 C-1.4785173 17.10626499 -1.14689432 12.91768573 -1.125 8.8125 C-1.12886719 8.07580078 -1.13273437 7.33910156 -1.13671875 6.58007812 C-1.12668491 1.12668491 -1.12668491 1.12668491 0 0 Z " fill="#FCC419" transform="translate(129,97)"/>
<path d="M0 0 C3.17877529 5.19242179 2.46802574 11.12773953 2 17 C0.43176214 21.70471358 -1.71373159 24.44864976 -6 27 C-9.20903557 27 -10.46911421 26.49427297 -12.8125 24.3125 C-14.46095745 21.10234603 -14.61102408 19.59825289 -14 16 C-10.67406486 9.32376389 -5.79295231 4.57260956 0 0 Z " fill="#F8A922" transform="translate(125,61)"/>
<path d="M0 0 C1.92844523 17.09540636 1.92844523 17.09540636 -3.25 24 C-6 26 -6 26 -9.125 26.5625 C-12 26 -12 26 -13.875 24.4375 C-15.45583282 21.01236222 -15.44455859 18.74699387 -15 15 C-12.52673228 9.45988032 -6.85944563 0 0 0 Z " fill="#F8A71E" transform="translate(127,108)"/>
<path d="M0 0 C2.92584944 1.3154029 3.83752812 2.40503374 6 5 C6.80154862 7.86020227 6.74595394 10.131836 6 13 C4.125 16 4.125 16 1 18 C-4.10602071 19.02120414 -7.74510672 18.82822957 -12.125 15.9375 C-14.49022795 12.23197622 -14.69498979 10.32438094 -14 6 C-10.2916343 0.31383925 -6.72017026 -1.07024934 0 0 Z M-5 6 C-5.33 7.65 -5.66 9.3 -6 11 C-4.68 11.33 -3.36 11.66 -2 12 C-2 10.35 -2 8.7 -2 7 C-2.99 6.67 -3.98 6.34 -5 6 Z " fill="#FDFDFD" transform="translate(489,206)"/>
<path d="M0 0 C0.05420701 2.56278699 0.09377007 5.12441483 0.125 7.6875 C0.14175781 8.40873047 0.15851563 9.12996094 0.17578125 9.87304688 C0.22141938 14.87042235 -0.0966466 18.68918385 -3.33203125 22.6171875 C-5.8828156 24.78434465 -7.34045289 26.01498971 -10.75 25.9375 C-13 25 -13 25 -15 23 C-15.82344222 18.74027003 -15.83036004 14.65785677 -13.8671875 10.73828125 C-10.54958924 6.17875484 -5.95257683 0 0 0 Z " fill="#F5A624" transform="translate(160,98)"/>
<path d="M0 0 C11.73786408 8.21359223 11.73786408 8.21359223 14 15 C14.56663169 22.13955929 14.56663169 22.13955929 12.3125 25.5625 C10 27 10 27 7.5625 27.0625 C3.67277918 25.44968893 0.88750376 22.77500751 -1 19 C-1.09466261 17.63667984 -1.13072175 16.26894483 -1.1328125 14.90234375 C-1.13410156 14.10119141 -1.13539063 13.30003906 -1.13671875 12.47460938 C-1.13285156 11.63736328 -1.12898437 10.80011719 -1.125 9.9375 C-1.12886719 9.09638672 -1.13273438 8.25527344 -1.13671875 7.38867188 C-1.12662682 1.12662682 -1.12662682 1.12662682 0 0 Z " fill="#FCC61B" transform="translate(130,120)"/>
<path d="M0 0 C0.99 0 1.98 0 3 0 C6.46303701 7.19816978 9.58595086 13.89238208 8 22 C6.375 25.125 6.375 25.125 4 27 C0.9375 27.5 0.9375 27.5 -2 27 C-4.55949546 25.14657225 -4.97918798 24.06243607 -6 21 C-6.82333791 13.45273584 -4.28759408 7.73687311 -1 1 C-0.67 0.67 -0.34 0.34 0 0 Z " fill="#FAA716" transform="translate(143,57)"/>
<path d="M0 0 C0.08144943 2.70894767 0.14070614 5.41541263 0.1875 8.125 C0.22520508 9.26582031 0.22520508 9.26582031 0.26367188 10.4296875 C0.32774962 15.38503301 -0.25875382 18.70167364 -3 23 C-5.76178178 25.25303251 -7.11253 26.04127767 -10.6875 25.875 C-13 25 -13 25 -15 22 C-15.86692932 18.8234651 -15.79900073 16.19124696 -15 13 C-6.64163373 0 -6.64163373 0 0 0 Z " fill="#F6A623" transform="translate(193,62)"/>
<path d="M0 0 C5.85525959 2.61234659 11.5807172 8.02294839 14 14 C14.52300961 18.75770029 14.70420092 21.94369861 12 26 C8.21480896 26.58880749 6.50163208 26.31922042 3.25 24.25 C-0.0798078 20.9201922 -1.10548202 18.60490632 -1.23046875 13.92578125 C-1.22650188 12.38795925 -1.21186618 10.85013407 -1.1875 9.3125 C-1.18685547 8.52810547 -1.18621094 7.74371094 -1.18554688 6.93554688 C-1.14046848 1.14046848 -1.14046848 1.14046848 0 0 Z " fill="#FCC515" transform="translate(96,85)"/>
<path d="M0 0 C0.99 0.33 1.98 0.66 3 1 C3.08152344 3.54232342 3.14073716 6.08199202 3.1875 8.625 C3.22520508 9.69427734 3.22520508 9.69427734 3.26367188 10.78515625 C3.33016969 15.61733077 2.60981439 18.78365753 0 23 C-2.24030982 25.24030982 -3.42529406 25.91589669 -6.5625 26.375 C-9.50680167 25.92203051 -10.17907158 25.30685033 -12 23 C-12.93222465 19.54379296 -12.77928562 16.47982887 -12 13 C-8.99647617 7.9586243 -5.0894263 3.05158691 0 0 Z " fill="#F9AB1A" transform="translate(157,74)"/>
<path d="M0 0 C3.34123474 1.4533622 5.56541965 3.29595516 8.125 5.875 C8.80820313 6.55304688 9.49140625 7.23109375 10.1953125 7.9296875 C13.1869528 11.36165581 14.28938438 14.00872263 14.3125 18.5625 C14.32925781 19.32691406 14.34601563 20.09132813 14.36328125 20.87890625 C13.90695824 23.54324385 13.17730549 24.4297313 11 26 C7.5625 26 7.5625 26 4 25 C-0.34843066 20.65156934 -1.12569684 17.14868707 -1.13671875 11.09765625 C-1.13285156 10.36417969 -1.12898438 9.63070312 -1.125 8.875 C-1.12886719 8.13378906 -1.13273437 7.39257812 -1.13671875 6.62890625 C-1.1266598 1.1266598 -1.1266598 1.1266598 0 0 Z " fill="#F7C221" transform="translate(129,74)"/>
<path d="M0 0 C0.66 0.33 1.32 0.66 2 1 C2.05420701 3.56278699 2.09377007 6.12441483 2.125 8.6875 C2.14175781 9.40873047 2.15851563 10.12996094 2.17578125 10.87304688 C2.22579703 16.34977499 1.64902458 20.02117051 -1.875 24.25 C-5.21428571 27 -5.21428571 27 -8 27 C-10.75 25.625 -10.75 25.625 -13 23 C-14.06193395 18.98824953 -13.79670084 15.54571184 -11.890625 11.84765625 C-8.57179513 7.19951011 -4.48435552 3.50257355 0 0 Z " fill="#FBA71A" transform="translate(191,85)"/>
<path d="M0 0 C2.9375 2.0625 2.9375 2.0625 5 5 C5.61370235 9.82194702 4.75408915 13.50514654 3 18 C-6.80570536 18.77277888 -6.80570536 18.77277888 -11.1875 15.9375 C-13.47514136 12.22994331 -13.6892533 10.28868719 -13 6 C-9.34110372 0.38969236 -6.66973311 -0.67827794 0 0 Z M-4 5 C-4.33 5.66 -4.66 6.32 -5 7 C-4.01 6.67 -3.02 6.34 -2 6 C-2.66 5.67 -3.32 5.34 -4 5 Z M-5 11 C-4.67 11.66 -4.34 12.32 -4 13 C-2.35 13 -0.7 13 1 13 C1.33 12.34 1.66 11.68 2 11 C-0.31 11 -2.62 11 -5 11 Z " fill="#FCFCFC" transform="translate(139,206)"/>
<path d="M0 0 C4.63235294 2.26470588 4.63235294 2.26470588 6 5 C6.04022391 7.3329866 6.04320247 9.66706666 6 12 C5.34 12 4.68 12 4 12 C4.020625 12.804375 4.04125 13.60875 4.0625 14.4375 C4 17 4 17 3 18 C-2.04367257 18.65380941 -5.81281872 18.78353965 -10.125 15.9375 C-12.49022795 12.23197622 -12.69498979 10.32438094 -12 6 C-8.56065403 0.72633618 -6.24498522 -0.48980276 0 0 Z M-3 5 C-3.33 5.66 -3.66 6.32 -4 7 C-3.34 7 -2.68 7 -2 7 C-2.33 6.34 -2.66 5.68 -3 5 Z M-4 11 C-3.67 11.66 -3.34 12.32 -3 13 C-1.68 12.67 -0.36 12.34 1 12 C-0.65 11.67 -2.3 11.34 -4 11 Z " fill="#FDFDFD" transform="translate(413,206)"/>
<path d="M0 0 C3.67524466 2.04180259 4.77855734 3.26647119 6 7.3125 C6 11.76965715 5.00558077 14.06906168 3 18 C-1.76862544 18.33334081 -5.72195437 18.58790099 -10.125 16.5625 C-12.49627681 13.32175502 -12.77954545 11.15620117 -12.55078125 7.1953125 C-11.92688235 4.70856651 -11.24619682 3.66551817 -9.375 1.9375 C-5.70339661 -0.17027232 -4.13334836 -0.79149224 0 0 Z M-4 5 C-4 5.66 -4 6.32 -4 7 C-3.34 7 -2.68 7 -2 7 C-2 6.34 -2 5.68 -2 5 C-2.66 5 -3.32 5 -4 5 Z M-3 12 C1 13 1 13 1 13 Z " fill="#FCFCFC" transform="translate(692,206)"/>
<path d="M0 0 C2.9375 1.5 2.9375 1.5 5 4 C5.59409904 9.26202005 4.98217535 13.04456162 3 18 C-7.03144654 18.62264151 -7.03144654 18.62264151 -10.625 16.3125 C-12.89017788 12.50288265 -13.27018928 10.22813308 -12.3125 5.875 C-9.63980747 0.02053064 -6.25067551 -0.76762682 0 0 Z M-4 5 C-4.33 5.66 -4.66 6.32 -5 7 C-4.01 7 -3.02 7 -2 7 C-2 6.34 -2 5.68 -2 5 C-2.66 5 -3.32 5 -4 5 Z M-3 12 C1 13 1 13 1 13 Z " fill="#FCFCFC" transform="translate(296,206)"/>
<path d="M0 0 C0.5534764 2.07553648 1 3.84365964 1 6 C0.01 6.495 0.01 6.495 -1 7 C-0.01 8.65 0.98 10.3 2 12 C-0.875 16.875 -0.875 16.875 -2 18 C-3.85287502 18.07226502 -5.70833878 18.0838122 -7.5625 18.0625 C-8.57441406 18.05347656 -9.58632813 18.04445312 -10.62890625 18.03515625 C-11.41136719 18.02355469 -12.19382812 18.01195312 -13 18 C-13 16.02 -13 14.04 -13 12 C-11.35 12 -9.7 12 -8 12 C-8.825 11.62875 -9.65 11.2575 -10.5 10.875 C-13 9 -13 9 -13.5625 6 C-13 3 -13 3 -11.5625 1.125 C-7.74855449 -0.5494151 -4.10420515 -0.23678107 0 0 Z " fill="#FCFCFC" transform="translate(766,206)"/>
<path d="M0 0 C5.88606671 2.58670196 10.65625841 7.36626649 13.5625 13.0625 C14.08714046 16.58508592 13.69570352 19.52148238 13 23 C9.73440544 23.22783218 7.34182278 23.12429919 4.25 22 C1.02125079 19.1300007 0.45074649 16.13510913 0 12 C-0.14222556 7.99316277 -0.12021171 4.00705711 0 0 Z " fill="#FCC417" transform="translate(163,86)"/>
<path d="M0 0 C2.31 0.33 4.62 0.66 7 1 C7 8.92 7 16.84 7 25 C4.36 25 1.72 25 -1 25 C-0.99476318 24.44538086 -0.98952637 23.89076172 -0.98413086 23.31933594 C-0.96328969 20.79623557 -0.95031718 18.27315336 -0.9375 15.75 C-0.92912109 14.87730469 -0.92074219 14.00460938 -0.91210938 13.10546875 C-0.90888672 12.26113281 -0.90566406 11.41679687 -0.90234375 10.546875 C-0.89710693 9.77182617 -0.89187012 8.99677734 -0.88647461 8.19824219 C-0.91641336 5.97770721 -0.91641336 5.97770721 -1.63110352 3.84082031 C-1.75283936 3.23334961 -1.8745752 2.62587891 -2 2 C-1.34 1.34 -0.68 0.68 0 0 Z " fill="#FDFDFD" transform="translate(467,199)"/>
<path d="M0 0 C1.175625 0.020625 2.35125 0.04125 3.5625 0.0625 C4.2225 0.0625 4.8825 0.0625 5.5625 0.0625 C6.8825 0.0625 8.2025 0.0625 9.5625 0.0625 C9.5625 2.3725 9.5625 4.6825 9.5625 7.0625 C7.9125 7.3925 6.2625 7.7225 4.5625 8.0625 C4.2325 11.3625 3.9025 14.6625 3.5625 18.0625 C0.9225 18.0625 -1.7175 18.0625 -4.4375 18.0625 C-4.46434312 15.24993719 -4.48426188 12.43762759 -4.5 9.625 C-4.50837891 8.82255859 -4.51675781 8.02011719 -4.52539062 7.19335938 C-4.5340143 5.14954779 -4.4897815 3.10566098 -4.4375 1.0625 C-3.4375 0.0625 -3.4375 0.0625 0 0 Z " fill="#FDFDFD" transform="translate(627.4375,205.9375)"/>
<path d="M0 0 C1.175625 0.020625 2.35125 0.04125 3.5625 0.0625 C4.2225 0.0625 4.8825 0.0625 5.5625 0.0625 C6.5525 0.0625 7.5425 0.0625 8.5625 0.0625 C8.8925 2.7025 9.2225 5.3425 9.5625 8.0625 C7.9125 8.0625 6.2625 8.0625 4.5625 8.0625 C4.2325 11.3625 3.9025 14.6625 3.5625 18.0625 C0.9225 18.0625 -1.7175 18.0625 -4.4375 18.0625 C-4.46434312 15.24993719 -4.48426188 12.43762759 -4.5 9.625 C-4.50837891 8.82255859 -4.51675781 8.02011719 -4.52539062 7.19335938 C-4.5340143 5.14954779 -4.4897815 3.10566098 -4.4375 1.0625 C-3.4375 0.0625 -3.4375 0.0625 0 0 Z " fill="#FDFDFD" transform="translate(424.4375,205.9375)"/>
<path d="M0 0 C3.85852918 1.57199337 6.32218131 3.82889891 9 7 C10.6973664 11.44548343 11.23122508 15.25988582 11 20 C10.01 20.33 9.02 20.66 8 21 C6 18 6 18 6 15 C5.01 15.33 4.02 15.66 3 16 C2.67 16.99 2.34 17.98 2 19 C1.34 19 0.68 19 0 19 C-1.58696844 15.82606311 -1.1431447 12.41825795 -1.125 8.9375 C-1.12886719 8.19177734 -1.13273438 7.44605469 -1.13671875 6.67773438 C-1.12663501 1.12663501 -1.12663501 1.12663501 0 0 Z " fill="#FCC417" transform="translate(164,63)"/>
<path d="M0 0 C0.33 0.99 0.66 1.98 1 3 C1.639375 3.12375 2.27875 3.2475 2.9375 3.375 C3.618125 3.58125 4.29875 3.7875 5 4 C7.60883619 9.18079837 7.68955794 14.32178831 7 20 C5.3125 23.1875 5.3125 23.1875 3 25 C0.25 25.3125 0.25 25.3125 -2 25 C-2.33 24.34 -2.66 23.68 -3 23 C-2.34 22.34 -1.68 21.68 -1 21 C-0.6936141 18.26565038 -0.4886664 15.61720179 -0.375 12.875 C-0.33632812 12.12089844 -0.29765625 11.36679687 -0.2578125 10.58984375 C-0.16348969 8.72696816 -0.08065338 6.86351745 0 5 C-0.66 4.67 -1.32 4.34 -2 4 C-1.34 2.68 -0.68 1.36 0 0 Z " fill="#FAAC18" transform="translate(177,47)"/>
<path d="M0 0 C0.33 0 0.66 0 1 0 C1 5.94 1 11.88 1 18 C0.34 18 -0.32 18 -1 18 C-1.66 19.32 -2.32 20.64 -3 22 C-4.65 21.67 -6.3 21.34 -8 21 C-8 20.34 -8 19.68 -8 19 C-8.66 19 -9.32 19 -10 19 C-10 16.69 -10 14.38 -10 12 C-4.25 9 -4.25 9 -2 9 C-2.3403125 8.1646875 -2.3403125 8.1646875 -2.6875 7.3125 C-3.12692663 4.06074293 -1.87304774 2.59345072 0 0 Z " fill="#FCA71A" transform="translate(124,87)"/>
<path d="M0 0 C0.99 0 1.98 0 3 0 C2.855625 1.21816406 2.71125 2.43632813 2.5625 3.69140625 C2.37479204 5.31508014 2.1873037 6.93877943 2 8.5625 C1.90460938 9.36236328 1.80921875 10.16222656 1.7109375 10.98632812 C1.17285824 15.69452167 0.89823297 20.26147265 1 25 C-0.65 25 -2.3 25 -4 25 C-6.51298096 21.23052855 -6.71305428 17.35522369 -6 13 C-2.32136106 2.32136106 -2.32136106 2.32136106 0 0 Z " fill="#FCC31A" transform="translate(143,57)"/>
<path d="M0 0 C1.32 0 2.64 0 4 0 C4 11.22 4 22.44 4 34 C2.68 34 1.36 34 0 34 C0 22.78 0 11.56 0 0 Z " fill="#DA9D2C" transform="translate(109,133)"/>
<path d="M0 0 C0.66 0.33 1.32 0.66 2 1 C1.97679687 1.7734375 1.95359375 2.546875 1.9296875 3.34375 C1.82071094 9.63325438 2.14873907 14.98340199 4 21 C4.99 21 5.98 21 7 21 C7.33 21.66 7.66 22.32 8 23 C10.52733235 23.65555119 10.52733235 23.65555119 13 24 C11.6875 25.5 11.6875 25.5 10 27 C9.01 27 8.02 27 7 27 C7.433125 27.40992187 7.86625 27.81984375 8.3125 28.2421875 C8.869375 28.78101562 9.42625 29.31984375 10 29.875 C10.556875 30.40867187 11.11375 30.94234375 11.6875 31.4921875 C13 33 13 33 13 35 C11.515 35.495 11.515 35.495 10 36 C10 34.68 10 33.36 10 32 C9.01 31.67 8.02 31.34 7 31 C7 30.34 7 29.68 7 29 C6.360625 28.87625 5.72125 28.7525 5.0625 28.625 C4.0415625 28.315625 4.0415625 28.315625 3 28 C2.67 27.34 2.34 26.68 2 26 C1.9455548 28.20805524 1.90700717 30.41650554 1.875 32.625 C1.85179687 33.85476562 1.82859375 35.08453125 1.8046875 36.3515625 C1.9969572 39.94316041 2.69741444 42.66661175 4 46 C0.07733816 42.24788868 0.07733816 42.24788868 -0.11352539 39.16821289 C-0.10828857 38.4436792 -0.10305176 37.71914551 -0.09765625 36.97265625 C-0.09443359 36.18052734 -0.09121094 35.38839844 -0.08789062 34.57226562 C-0.07951172 33.74404297 -0.07113281 32.91582031 -0.0625 32.0625 C-0.05798828 31.23814453 -0.05347656 30.41378906 -0.04882812 29.56445312 C-0.04010264 28.03001478 -0.02932733 26.49558578 -0.01586914 24.96118164 C0.00834532 21.9686469 -0.03876228 19.88371315 -1 17 C-1.09504628 14.85586777 -1.12987226 12.7087323 -1.125 10.5625 C-1.12886719 8.86287109 -1.12886719 8.86287109 -1.1328125 7.12890625 C-1.02325193 4.54778817 -0.75864877 2.45055595 0 0 Z " fill="#E9BE35" transform="translate(162,85)"/>
<path d="M0 0 C0.99 0 1.98 0 3 0 C3 11.22 3 22.44 3 34 C1.68 34 0.36 34 -1 34 C-1.02465288 29.31860746 -1.04283739 24.63725241 -1.05493164 19.95581055 C-1.05997157 18.36205386 -1.0668035 16.76830181 -1.07543945 15.17456055 C-1.08751999 12.88849747 -1.09323155 10.60249533 -1.09765625 8.31640625 C-1.10281754 7.59973282 -1.10797882 6.88305939 -1.11329651 6.14466858 C-1.11349263 4.42936328 -1.06192007 2.71418734 -1 1 C-0.67 0.67 -0.34 0.34 0 0 Z " fill="#DD9F2C" transform="translate(143,145)"/>
<path d="M0 0 C0.99 0.33 1.98 0.66 3 1 C2.67 1.66 2.34 2.32 2 3 C1.91691362 4.37548156 1.89263984 5.75485796 1.90234375 7.1328125 C1.90556641 7.93847656 1.90878906 8.74414062 1.91210938 9.57421875 C1.92048828 10.41597656 1.92886719 11.25773437 1.9375 12.125 C1.94426758 13.39923828 1.94426758 13.39923828 1.95117188 14.69921875 C1.96297126 16.79950909 1.98090694 18.8997633 2 21 C2.66 21 3.32 21 4 21 C4.33 19.68 4.66 18.36 5 17 C5.99 17 6.98 17 8 17 C9.03013277 18.64821244 10.03114628 20.31503702 11 22 C11.66 22 12.32 22 13 22 C12.34 18.04 11.68 14.08 11 10 C14.14907143 14.19876191 15.39077758 16.80677157 15 22 C13.0625 25 13.0625 25 11 27 C7.58304635 26.68936785 5.49013483 26.38121598 2.75 24.25 C-1.04247901 19.37395556 -1.29024632 14.76336346 -1.1875 8.75 C-1.18685547 8.0178125 -1.18621094 7.285625 -1.18554688 6.53125 C-1.140625 1.140625 -1.140625 1.140625 0 0 Z " fill="#F9C71F" transform="translate(162,61)"/>
<path d="M0 0 C4 1 4 1 5.265625 3.00390625 C7.4102471 8.57822163 8.9110346 13.0276621 8 19 C5.5 22 5.5 22 3 24 C3 22.68 3 21.36 3 20 C2.34 20 1.68 20 1 20 C0.67 13.4 0.34 6.8 0 0 Z " fill="#F8AE23" transform="translate(110,47)"/>
<path d="M0 0 C0.33 0 0.66 0 1 0 C1.77970297 10.86386139 1.77970297 10.86386139 -1.1875 15.1875 C-3.93378755 16.95732976 -5.76812607 17.72298223 -9 18 C-11.68609622 14.19469703 -12.59490938 11.66012347 -12 7 C-10.5 4.625 -10.5 4.625 -9 3 C-8.34 4.65 -7.68 6.3 -7 8 C-4.69 8 -2.38 8 0 8 C0 5.36 0 2.72 0 0 Z " fill="#F8AA21" transform="translate(191,70)"/>
<path d="M0 0 C2.6875 0.3125 2.6875 0.3125 5 1 C5.125 6.75 5.125 6.75 4 9 C2.68 9 1.36 9 0 9 C0.185625 9.78375 0.37125 10.5675 0.5625 11.375 C1 14 1 14 0 16 C-1.65 16 -3.3 16 -5 16 C-5.33 15.01 -5.66 14.02 -6 13 C-5.67 12.34 -5.34 11.68 -5 11 C-5.66 11 -6.32 11 -7 11 C-7 8.69 -7 6.38 -7 4 C-6.401875 3.896875 -5.80375 3.79375 -5.1875 3.6875 C-2.90825352 3.17782476 -2.90825352 3.17782476 -1.5625 1.375 C-0.7890625 0.694375 -0.7890625 0.694375 0 0 Z " fill="#FCA71B" transform="translate(154,83)"/>
<path d="M0 0 C0.99 0 1.98 0 3 0 C3 11.22 3 22.44 3 34 C1.68 33.67 0.36 33.34 -1 33 C-1.02465392 28.46102295 -1.04283789 23.92208457 -1.05493164 19.38305664 C-1.0599714 17.83780234 -1.0668032 16.29255284 -1.07543945 14.74731445 C-1.08752076 12.53074971 -1.09323173 10.31424782 -1.09765625 8.09765625 C-1.10281754 7.4028566 -1.10797882 6.70805695 -1.11329651 5.99220276 C-1.11349277 4.3277067 -1.06189129 2.66334501 -1 1 C-0.67 0.67 -0.34 0.34 0 0 Z " fill="#E6A93C" transform="translate(176,133)"/>
<path d="M0 0 C5.46727972 2.44462067 9.8047298 6.55749134 12.4375 11.9375 C12.623125 12.618125 12.80875 13.29875 13 14 C11.35 14.33 9.7 14.66 8 15 C8 14.01 8 13.02 8 12 C7.01 12 6.02 12 5 12 C5 11.01 5 10.02 5 9 C4.01 9.33 3.02 9.66 2 10 C1.67 13.3 1.34 16.6 1 20 C-1 18 -1 18 -1.23046875 14.12109375 C-1.22647576 12.55983524 -1.21171261 10.99857586 -1.1875 9.4375 C-1.18685547 8.64408203 -1.18621094 7.85066406 -1.18554688 7.03320312 C-1.14025522 1.14025522 -1.14025522 1.14025522 0 0 Z " fill="#F5C62D" transform="translate(96,85)"/>
<path d="M0 0 C2 2 2 2 2.1953125 5.4765625 C2.18201493 6.85950968 2.15816232 8.24238654 2.125 9.625 C2.11597656 10.33140625 2.10695313 11.0378125 2.09765625 11.765625 C2.07407603 13.51056098 2.03820461 15.25532295 2 17 C2.66 17 3.32 17 4 17 C4 18.65 4 20.3 4 22 C1.625 22.125 1.625 22.125 -1 22 C-4.05366345 18.94633655 -4.08331784 16.05720689 -4.25 11.875 C-4.1675 10.59625 -4.085 9.3175 -4 8 C-3.01 7.34 -2.02 6.68 -1 6 C-0.26656572 2.93443402 -0.26656572 2.93443402 0 0 Z " fill="#F9BC1E" transform="translate(109,50)"/>
<path d="M0 0 C0.99 0.33 1.98 0.66 3 1 C3 5.62 3 10.24 3 15 C2.01 14.67 1.02 14.34 0 14 C0 12.68 0 11.36 0 10 C-0.99 10.33 -1.98 10.66 -3 11 C-3 10.01 -3 9.02 -3 8 C-3.78375 8.78375 -4.5675 9.5675 -5.375 10.375 C-6.91666667 11.91666667 -8.45833333 13.45833333 -10 15 C-10.39764263 16.98821313 -10.73775349 18.98944339 -11 21 C-11.66 21 -12.32 21 -13 21 C-12.8655776 13.47234587 -10.25578143 10.18939261 -5 5 C-4.48050781 4.46761719 -3.96101562 3.93523437 -3.42578125 3.38671875 C-2.30006381 2.241648 -1.15276715 1.11783482 0 0 Z " fill="#E9A931" transform="translate(158,120)"/>
<path d="M0 0 C0.33 0 0.66 0 1 0 C1.05428973 2.22889496 1.09292338 4.45817471 1.125 6.6875 C1.14820313 7.92886719 1.17140625 9.17023438 1.1953125 10.44921875 C0.96849923 14.57268396 0.30958687 17.41006169 -2.33203125 20.6171875 C-4.91575744 22.81233218 -6.36140449 24.01419101 -9.8125 23.9375 C-12 23 -12 23 -13 21 C-10.36 21 -7.72 21 -5 21 C-5.66 20.21625 -6.32 19.4325 -7 18.625 C-9 16 -9 16 -9 14 C-8.030625 13.87625 -7.06125 13.7525 -6.0625 13.625 C-5.051875 13.41875 -4.04125 13.2125 -3 13 C-2.67 12.34 -2.34 11.68 -2 11 C-1.34 11 -0.68 11 0 11 C0 7.37 0 3.74 0 0 Z " fill="#ECA62C" transform="translate(159,100)"/>
<path d="M0 0 C4.81184702 3.34156043 8.30556582 7.24724964 9.38671875 13.08984375 C9.57346959 16.54795413 9.22125551 18.66401942 7.3125 21.5625 C5 23 5 23 2.25 22.75 C1.5075 22.5025 0.765 22.255 0 22 C0 21.67 0 21.34 0 21 C1.65 21 3.3 21 5 21 C5 20.01 5 19.02 5 18 C4.01 17.67 3.02 17.34 2 17 C2.33 16.34 2.66 15.68 3 15 C5.0625 14.375 5.0625 14.375 7 14 C5.6910428 10.87802522 5.6910428 10.87802522 3 9 C2.26919734 7.02253397 1.60578253 5.01927511 1 3 C0.67 2.01 0.34 1.02 0 0 Z " fill="#E5B530" transform="translate(135,124)"/>
<path d="M0 0 C2.64 0 5.28 0 8 0 C7.34 3.3 6.68 6.6 6 10 C3.69 10 1.38 10 -1 10 C-0.67 6.7 -0.34 3.4 0 0 Z " fill="#FCFCFC" transform="translate(517,218)"/>
<path d="M0 0 C2.0625 2.3125 2.0625 2.3125 4 5 C3.67 5.99 3.34 6.98 3 8 C3.66 8 4.32 8 5 8 C5.33 6.68 5.66 5.36 6 4 C6.99 4 7.98 4 9 4 C9 4.66 9 5.32 9 6 C9.66 6 10.32 6 11 6 C11.66 4.35 12.32 2.7 13 1 C13.66 1 14.32 1 15 1 C14.70197895 4.47691229 13.9882377 6.01512296 11.8125 8.8125 C9 11 9 11 5.875 11.5625 C3 11 3 11 1.125 9.4375 C-0.3704944 6.19726212 -0.20330402 3.52393641 0 0 Z " fill="#F3AC2B" transform="translate(112,123)"/>
<path d="M0 0 C0.33 0 0.66 0 1 0 C1.33 1.65 1.66 3.3 2 5 C2.66 4.34 3.32 3.68 4 3 C4.226875 3.804375 4.45375 4.60875 4.6875 5.4375 C5.120625 6.283125 5.55375 7.12875 6 8 C8.54775306 8.89386164 8.54775306 8.89386164 11 9 C9.3125 11.0625 9.3125 11.0625 7 13 C3.82405584 13 2.50921934 12.47410077 0.1875 10.3125 C-1.32704877 7.36311555 -1.28476418 5.2747881 -1 2 C-0.67 1.34 -0.34 0.68 0 0 Z " fill="#F0AC2D" transform="translate(112,75)"/>
<path d="M0 0 C4 0 4 0 5.6875 1.625 C7.23149037 4.41888733 7.64161619 6.84622244 8 10 C4.63458162 11.08174162 3.70152678 10.92538169 0 10 C0 6.7 0 3.4 0 0 Z " fill="#FCC416" transform="translate(131,124)"/>
<path d="M0 0 C0.66 0.33 1.32 0.66 2 1 C2.05407567 3.58361518 2.093707 6.16609255 2.125 8.75 C2.14175781 9.47960937 2.15851563 10.20921875 2.17578125 10.9609375 C2.21372922 15.13521398 1.91514727 17.16970546 0 21 C-0.33 15.72 -0.66 10.44 -1 5 C-1.66 5.66 -2.32 6.32 -3 7 C-4.32467746 7.6837045 -5.65863633 8.34964186 -7 9 C-7.99 9.66 -8.98 10.32 -10 11 C-8.55218207 7.55571735 -6.72305391 5.63869038 -3.875 3.25 C-3.15054688 2.63640625 -2.42609375 2.0228125 -1.6796875 1.390625 C-0.84824219 0.70226562 -0.84824219 0.70226562 0 0 Z " fill="#EAAB41" transform="translate(191,85)"/>
<path d="M0 0 C0.99 0 1.98 0 3 0 C2.34 3.3 1.68 6.6 1 10 C-0.32 9.67 -1.64 9.34 -3 9 C-3.33 13.95 -3.66 18.9 -4 24 C-6.53094168 20.20358749 -6.7078792 17.38607503 -6 13 C-2.32830189 2.32830189 -2.32830189 2.32830189 0 0 Z " fill="#EFC136" transform="translate(143,57)"/>
<path d="M0 0 C0.99 0.33 1.98 0.66 3 1 C2.319375 1.495 1.63875 1.99 0.9375 2.5 C-6.38179322 8.5506768 -6.38179322 8.5506768 -9.9375 17 C-9.958125 17.99 -9.97875 18.98 -10 20 C-9.34 20 -8.68 20 -8 20 C-8 21.32 -8 22.64 -8 24 C-6.68 24.66 -5.36 25.32 -4 26 C-8.51500078 26.36608114 -8.51500078 26.36608114 -10.625 24.7734375 C-12.86723701 21.88146136 -12.70993429 19.33751087 -12.62109375 15.7734375 C-11.25485945 9.67264283 -6.46985838 5.19594552 -1.921875 1.15234375 C-1.28765625 0.77207031 -0.6534375 0.39179687 0 0 Z " fill="#E2A53D" transform="translate(157,74)"/>
<path d="M0 0 C10.87346 8.88813724 10.87346 8.88813724 11.875 15.125 C12 19 12 19 10 22 C9.87625 21.030625 9.7525 20.06125 9.625 19.0625 C9.41875 18.051875 9.2125 17.04125 9 16 C8.34 15.67 7.68 15.34 7 15 C7.33 13.68 7.66 12.36 8 11 C7.01 10.67 6.02 10.34 5 10 C5.33 9.34 5.66 8.68 6 8 C5.34 7.67 4.68 7.34 4 7 C1.875 5.6875 1.875 5.6875 0 4 C0 2.68 0 1.36 0 0 Z " fill="#F5C832" transform="translate(165,87)"/>
<path d="M0 0 C0.33 0 0.66 0 1 0 C1.05422947 1.4370809 1.09289723 2.87475462 1.125 4.3125 C1.14820312 5.11300781 1.17140625 5.91351563 1.1953125 6.73828125 C1 9 1 9 -1 12 C-4.89891378 12.6064977 -6.54514962 12.29664155 -9.875 10.125 C-10.57625 9.42375 -11.2775 8.7225 -12 8 C-12 7.34 -12 6.68 -12 6 C-10.68 6.33 -9.36 6.66 -8 7 C-8 7.99 -8 8.98 -8 10 C-5.69 10 -3.38 10 -1 10 C-1 9.34 -1 8.68 -1 8 C-2.65 8.33 -4.3 8.66 -6 9 C-5.67 7.02 -5.34 5.04 -5 3 C-4.01 3 -3.02 3 -2 3 C-1.67 3.66 -1.34 4.32 -1 5 C-0.67 3.35 -0.34 1.7 0 0 Z " fill="#F7C323" transform="translate(109,99)"/>
<path d="M0 0 C3.54712884 5.32069326 3.65640081 9.67302555 3 16 C1.3125 19.1875 1.3125 19.1875 -1 21 C-3.75 21.3125 -3.75 21.3125 -6 21 C-5.01 20.67 -4.02 20.34 -3 20 C-2.67 18.35 -2.34 16.7 -2 15 C-1.67 15.99 -1.34 16.98 -1 18 C0.22929758 15.21254232 0.22929758 15.21254232 -0.46484375 13.171875 C-1.14965888 10.39262529 -0.86664317 8.08866957 -0.5625 5.25 C-0.46066406 4.26515625 -0.35882813 3.2803125 -0.25390625 2.265625 C-0.12822266 1.14414062 -0.12822266 1.14414062 0 0 Z " fill="#EEAC2B" transform="translate(181,51)"/>
<path d="M0 0 C2.88437779 1.29299694 4.87219421 2.65941363 7 5 C6.01 5.33 5.02 5.66 4 6 C3.67 5.34 3.34 4.68 3 4 C2.34 8.62 1.68 13.24 1 18 C1.66 18 2.32 18 3 18 C3.33 19.65 3.66 21.3 4 23 C3.34 23 2.68 23 2 23 C-1.54942592 16.84766173 -2.03030599 8.61260065 -0.4921875 1.7265625 C-0.32976562 1.15679687 -0.16734375 0.58703125 0 0 Z " fill="#F0CA36" transform="translate(96,108)"/>
<path d="M0 0 C0.99 0 1.98 0 3 0 C2.67 0.99 2.34 1.98 2 3 C1.34 2.67 0.68 2.34 0 2 C-0.02578125 2.62648437 -0.0515625 3.25296875 -0.078125 3.8984375 C-0.13484375 4.71570312 -0.1915625 5.53296875 -0.25 6.375 C-0.29640625 7.18710937 -0.3428125 7.99921875 -0.390625 8.8359375 C-0.59171875 9.55007812 -0.7928125 10.26421875 -1 11 C-2.98 11.99 -2.98 11.99 -5 13 C-4.67 16.63 -4.34 20.26 -4 24 C-6.42901902 21.57098098 -6.32209476 20.84361143 -6.375 17.5 C-6.26502884 11.19498687 -4.55153112 4.55153112 0 0 Z " fill="#EEC339" transform="translate(110,45)"/>
<path d="M0 0 C2.41486943 2.41486943 2.2961925 3.12707789 2.3125 6.4375 C2.32925781 7.21996094 2.34601563 8.00242188 2.36328125 8.80859375 C1.91449279 11.51580155 1.18548266 12.38131308 -1 14 C-4.0625 14.375 -4.0625 14.375 -7 14 C-7.66 13.01 -8.32 12.02 -9 11 C-7.5459375 10.814375 -7.5459375 10.814375 -6.0625 10.625 C-5.051875 10.41875 -4.04125 10.2125 -3 10 C-2.67 9.34 -2.34 8.68 -2 8 C-1.34 8 -0.68 8 0 8 C0 5.36 0 2.72 0 0 Z " fill="#EBBE30" transform="translate(175,120)"/>
<path d="M0 0 C0.99 1.32 1.98 2.64 3 4 C2.01 4.495 2.01 4.495 1 5 C1.19471111 6.94999129 1.19471111 6.94999129 2 9 C4.49840595 10.87380446 5.63319166 11.05001932 8.75 10.625 C9.4925 10.41875 10.235 10.2125 11 10 C9.56370524 12.22625688 8.48439488 13.74165606 6.125 15 C4 15 4 15 1.25 13.625 C-1.62974722 10.26529491 -1.45830706 8.30387883 -1.2734375 4.0234375 C-1 2 -1 2 0 0 Z " fill="#F0AC32" transform="translate(179,97)"/>
<path d="M0 0 C2.99529289 0.99843096 4.15840327 1.51384442 6 4 C5.6875 6.1875 5.6875 6.1875 5 8 C4.67 7.01 4.34 6.02 4 5 C3.01 5.33 2.02 5.66 1 6 C0.67 9.3 0.34 12.6 0 16 C-2 14 -2 14 -2.1953125 11.6171875 C-2.17210938 10.71226563 -2.14890625 9.80734375 -2.125 8.875 C-2.10695313 7.96492188 -2.08890625 7.05484375 -2.0703125 6.1171875 C-2.04710938 5.41851562 -2.02390625 4.71984375 -2 4 C-1.34 4 -0.68 4 0 4 C0 2.68 0 1.36 0 0 Z " fill="#F7C527" transform="translate(97,89)"/>
<path d="M0 0 C5.45949074 1.09189815 6.01471081 1.68791562 9 6 C7.35 5.67 5.7 5.34 4 5 C4 4.01 4 3.02 4 2 C3.34 2 2.68 2 2 2 C2 6.95 2 11.9 2 17 C1.34 17 0.68 17 0 17 C0 11.39 0 5.78 0 0 Z " fill="#F1C940" transform="translate(95,62)"/>
<path d="M0 0 C2.44335512 2.29064542 3.86357446 4.0981554 4.37109375 7.453125 C4.54034902 14.26316043 4.54034902 14.26316043 2.66796875 16.81640625 C1 18 1 18 -2.125 17.8125 C-3.07375 17.544375 -4.0225 17.27625 -5 17 C-5.33 16.34 -5.66 15.68 -6 15 C-3.69 15.33 -1.38 15.66 1 16 C1.33 12.04 1.66 8.08 2 4 C1.34 4 0.68 4 0 4 C0 2.68 0 1.36 0 0 Z " fill="#E8C241" transform="translate(139,106)"/>
<path d="M0 0 C0.33 0 0.66 0 1 0 C1.61619487 8.81500987 1.61619487 8.81500987 -0.625 13.125 C-3.60566051 15.47815304 -5.29320509 15.42122669 -9 15 C-9.33 14.34 -9.66 13.68 -10 13 C-6.535 12.505 -6.535 12.505 -3 12 C-3.061875 11.319375 -3.12375 10.63875 -3.1875 9.9375 C-2.94131737 6.08063875 -1.64197838 3.48920406 0 0 Z " fill="#EAAC35" transform="translate(150,69)"/>
<path d="M0 0 C0.66 0 1.32 0 2 0 C5 6.5 5 6.5 5 11 C3.68 11.33 2.36 11.66 1 12 C-0.80619523 7.53763531 -1.11658501 4.68965706 0 0 Z " fill="#F8AC28" transform="translate(145,60)"/>
<path d="M0 0 C1.32 1.32 2.64 2.64 4 4 C3.01 4 2.02 4 1 4 C1 7.63 1 11.26 1 15 C2.32 15.66 3.64 16.32 5 17 C4.01 17.33 3.02 17.66 2 18 C2 19.65 2 21.3 2 23 C-0.7118411 20.39520526 -1.22616837 18.33189842 -1.328125 14.70703125 C-1.31753824 13.07534736 -1.29100432 11.44370295 -1.25 9.8125 C-1.24484375 8.98041016 -1.2396875 8.14832031 -1.234375 7.29101562 C-1.15435332 1.15435332 -1.15435332 1.15435332 0 0 Z " fill="#EDC133" transform="translate(130,120)"/>
<path d="M0 0 C0.99 0.33 1.98 0.66 3 1 C3.05394705 3.60444348 3.09364469 6.20776998 3.125 8.8125 C3.14175781 9.55048828 3.15851563 10.28847656 3.17578125 11.04882812 C3.21074628 14.91246426 3.19397555 16.70903668 1 20 C0.67 14.39 0.34 8.78 0 3 C-1.98 3.99 -1.98 3.99 -4 5 C-2.68 3.35 -1.36 1.7 0 0 Z " fill="#E4A53F" transform="translate(124,85)"/>
<path d="M0 0 C0.99 0 1.98 0 3 0 C3.66 1.98 4.32 3.96 5 6 C3.68 5.34 2.36 4.68 1 4 C1 4.99 1 5.98 1 7 C1 7.66 1 8.32 1 9 C-0.98 9.99 -2.96 10.98 -5 12 C-4.54965877 10.37276701 -4.08944646 8.74826336 -3.625 7.125 C-3.36976563 6.22007813 -3.11453125 5.31515625 -2.8515625 4.3828125 C-2 2 -2 2 0 0 Z " fill="#F1C537" transform="translate(176,45)"/>
<path d="M0 0 C0.99 0.33 1.98 0.66 3 1 C2.67 1.66 2.34 2.32 2 3 C1.90151349 5.63596244 1.86100672 8.23959856 1.875 10.875 C1.87113281 11.59558594 1.86726562 12.31617187 1.86328125 13.05859375 C1.86963402 16.50815011 1.91297026 19.70440191 3 23 C0.7522025 20.94766315 -0.0022242 19.99332739 -1 17 C-1.09610691 14.28073978 -1.13933225 11.59335046 -1.125 8.875 C-1.12886719 8.13378906 -1.13273438 7.39257812 -1.13671875 6.62890625 C-1.1266598 1.1266598 -1.1266598 1.1266598 0 0 Z " fill="#E5BB44" transform="translate(162,61)"/>
<path d="M0 0 C0.33 1.32 0.66 2.64 1 4 C-1.475 5.485 -1.475 5.485 -4 7 C-3.6596875 7.8971875 -3.6596875 7.8971875 -3.3125 8.8125 C-3.209375 9.534375 -3.10625 10.25625 -3 11 C-4.4375 12.75 -4.4375 12.75 -6 14 C-6.99 13.67 -7.98 13.34 -9 13 C-4.85365854 2.42682927 -4.85365854 2.42682927 0 0 Z " fill="#EDAC31" transform="translate(187,112)"/>
<path d="M0 0 C0.99 0.495 0.99 0.495 2 1 C1.67 2.32 1.34 3.64 1 5 C2.32 5 3.64 5 5 5 C5.17942163 8.94727588 5.09350689 11.5980513 3 15 C2.34 15 1.68 15 1 15 C0.67 10.05 0.34 5.1 0 0 Z " fill="#FCC415" transform="translate(129,97)"/>
<path d="M0 0 C5.75 1.875 5.75 1.875 8 3 C8 3.99 8 4.98 8 6 C5.1875 6.625 5.1875 6.625 2 7 C1.01 6.34 0.02 5.68 -1 5 C-0.67 3.35 -0.34 1.7 0 0 Z " fill="#F9AB1C" transform="translate(146,115)"/>
<path d="M0 0 C3.35620271 1.38877354 5.07298728 2.91677965 7 6 C7 6.66 7 7.32 7 8 C4.36 7.67 1.72 7.34 -1 7 C-1.04254356 5.00045254 -1.04080783 2.99958364 -1 1 C-0.67 0.67 -0.34 0.34 0 0 Z " fill="#F9C626" transform="translate(164,63)"/>
<path d="M0 0 C1.75 0.125 1.75 0.125 4 1 C6.25 4.0625 6.25 4.0625 8 7 C6 9 6 9 3.375 9.125 C2.59125 9.08375 1.8075 9.0425 1 9 C1.33 7.68 1.66 6.36 2 5 C2.66 5 3.32 5 4 5 C4 4.34 4 3.68 4 3 C2.68 3.33 1.36 3.66 0 4 C0 2.68 0 1.36 0 0 Z " fill="#F6C421" transform="translate(101,113)"/>
<path d="M0 0 C4.2742558 1.5830577 6.26531794 4.50568404 9 8 C2.125 6.125 2.125 6.125 1 5 C0.67 7.31 0.34 9.62 0 12 C-0.33 12 -0.66 12 -1 12 C-1.02687279 10.18757948 -1.04633715 8.37504767 -1.0625 6.5625 C-1.07410156 5.55316406 -1.08570312 4.54382813 -1.09765625 3.50390625 C-1 1 -1 1 0 0 Z " fill="#F0C432" transform="translate(129,74)"/>
<path d="M0 0 C0.33 0 0.66 0 1 0 C1.08165496 2.20770805 1.13948488 4.41630425 1.1875 6.625 C1.22230469 7.85476562 1.25710937 9.08453125 1.29296875 10.3515625 C0.97391665 14.32482471 0.11173623 16.64288087 -2 20 C-2.99 20.66 -3.98 21.32 -5 22 C-5 19.69 -5 17.38 -5 15 C-3.68 15 -2.36 15 -1 15 C-0.67 10.05 -0.34 5.1 0 0 Z " fill="#E8AA34" transform="translate(159,77)"/>
<path d="M0 0 C0.66 0.66 1.32 1.32 2 2 C1.64453125 5.00390625 1.64453125 5.00390625 0.8125 8.5625 C0.55082031 9.73941406 0.28914063 10.91632812 0.01953125 12.12890625 C-0.31691406 13.07636719 -0.65335937 14.02382812 -1 15 C-1.99 15.33 -2.98 15.66 -4 16 C-4.29296875 9.9453125 -4.29296875 9.9453125 -4 8 C-3.01 7.34 -2.02 6.68 -1 6 C-0.26656572 2.93443402 -0.26656572 2.93443402 0 0 Z " fill="#FDC414" transform="translate(109,50)"/>
<path d="M0 0 C0.33 0.99 0.66 1.98 1 3 C0.2575 3.350625 -0.485 3.70125 -1.25 4.0625 C-3.96086735 5.97242927 -4.61237723 6.81141519 -6.0625 9.625 C-8 13 -8 13 -10.25 13.9375 C-10.8275 13.958125 -11.405 13.97875 -12 14 C-10.57910701 10.84717276 -8.84968149 8.46222036 -6.5625 5.875 C-5.96566406 5.19179687 -5.36882812 4.50859375 -4.75390625 3.8046875 C-3 2 -3 2 0 0 Z " fill="#F1AF38" transform="translate(125,61)"/>
<path d="M0 0 C0.36075949 5.41139241 0.36075949 5.41139241 -1.1875 7.9375 C-3 9 -3 9 -5.6875 8.6875 C-6.450625 8.460625 -7.21375 8.23375 -8 8 C-8 7.67 -8 7.34 -8 7 C-6.35 7 -4.7 7 -3 7 C-3 6.01 -3 5.02 -3 4 C-3.99 3.67 -4.98 3.34 -6 3 C-4.46624489 -0.06751022 -3.38927784 0 0 0 Z " fill="#F4C128" transform="translate(143,138)"/>
<path d="M0 0 C0.99 0.33 1.98 0.66 3 1 C3.05425226 3.39614126 3.09379027 5.79103853 3.125 8.1875 C3.15013672 9.19780273 3.15013672 9.19780273 3.17578125 10.22851562 C3.21538674 14.28807807 2.80020002 17.34998815 1 21 C0.67 21 0.34 21 0 21 C-0.042721 19.33388095 -0.04063832 17.66617115 0 16 C0.33 15.67 0.66 15.34 1 15 C1.23427778 12.98405418 1.41336124 10.961526 1.5625 8.9375 C1.64628906 7.83277344 1.73007813 6.72804688 1.81640625 5.58984375 C1.87699219 4.73519531 1.93757812 3.88054687 2 3 C0.35 3.33 -1.3 3.66 -3 4 C-2.01 2.68 -1.02 1.36 0 0 Z " fill="#EBB03F" transform="translate(191,108)"/>
<path d="M0 0 C0.33 0 0.66 0 1 0 C1.3622244 2.93671189 1.71508387 5.87403194 2.0625 8.8125 C2.16626953 9.64587891 2.27003906 10.47925781 2.37695312 11.33789062 C2.47041016 12.14033203 2.56386719 12.94277344 2.66015625 13.76953125 C2.74918213 14.50792236 2.83820801 15.24631348 2.92993164 16.00708008 C3 18 3 18 2 21 C-0.20949832 16.58970217 -0.2370648 12.51059676 -0.125 7.6875 C-0.11597656 6.94693359 -0.10695313 6.20636719 -0.09765625 5.44335938 C-0.07424213 3.62876533 -0.03837615 1.81433929 0 0 Z " fill="#E8B72E" transform="translate(128,98)"/>
<path d="M0 0 C0.33 0.99 0.66 1.98 1 3 C2.65 3.33 4.3 3.66 6 4 C5.49396008 6.16874252 5.00016187 7.99967627 4 10 C3.01 10 2.02 10 1 10 C-0.60725635 6.78548731 -0.05748185 3.56387464 0 0 Z " fill="#F8C727" transform="translate(170,58)"/>
<path d="M0 0 C0 5.61 0 11.22 0 17 C-0.33 17 -0.66 17 -1 17 C-1.33 12.38 -1.66 7.76 -2 3 C-3.32 2.67 -4.64 2.34 -6 2 C-3 0 -3 0 0 0 Z " fill="#E0AA45" transform="translate(193,62)"/>
<path d="M0 0 C4.875 0.875 4.875 0.875 6 2 C6.14115161 4.67058851 6.04247107 7.32432238 6 10 C4.68 9.34 3.36 8.68 2 8 C3 6 3 6 4 5 C3.01 4.34 2.02 3.68 1 3 C0.67 2.01 0.34 1.02 0 0 Z " fill="#F9AA15" transform="translate(111,55)"/>
<path d="M0 0 C3.12941562 4.17255416 4.40259151 6.82987746 4 12 C2.0625 14.5 2.0625 14.5 0 16 C0 14.68 0 13.36 0 12 C0.66 12 1.32 12 2 12 C1.34 8.04 0.68 4.08 0 0 Z " fill="#E9C237" transform="translate(173,71)"/>
<path d="M0 0 C1.9375 0.75 1.9375 0.75 4 2 C4.75 4.125 4.75 4.125 5 6 C3.68 5.34 2.36 4.68 1 4 C1 5.32 1 6.64 1 8 C0.34 8 -0.32 8 -1 8 C-1.04241723 5.66705225 -1.04092937 3.33297433 -1 1 C-0.67 0.67 -0.34 0.34 0 0 Z " fill="#F5CE3A" transform="translate(96,85)"/>
<path d="M0 0 C0.66 0 1.32 0 2 0 C2.33 4.29 2.66 8.58 3 13 C2.01 11.68 1.02 10.36 0 9 C-0.99 9.33 -1.98 9.66 -3 10 C-3 9.01 -3 8.02 -3 7 C-2.34 7 -1.68 7 -1 7 C-0.67 4.69 -0.34 2.38 0 0 Z " fill="#E7A530" transform="translate(125,108)"/>
<path d="M0 0 C1.13199353 0.9080162 2.25532363 1.82683826 3.375 2.75 C4.00148437 3.26046875 4.62796875 3.7709375 5.2734375 4.296875 C7.08312318 6.08199481 8.00117455 7.67949644 9 10 C8.01 10.33 7.02 10.66 6 11 C6 9.68 6 8.36 6 7 C5.01 6.67 4.02 6.34 3 6 C3 5.34 3 4.68 3 4 C2.01 4 1.02 4 0 4 C0 2.68 0 1.36 0 0 Z " fill="#F4C931" transform="translate(166,110)"/>
<path d="M0 0 C1.32 0.33 2.64 0.66 4 1 C4 1.99 4 2.98 4 4 C6.64 4 9.28 4 12 4 C11.67 4.66 11.34 5.32 11 6 C7.14521782 6.35858439 5.42240542 6.2754818 2.125 4.125 C1.42375 3.42375 0.7225 2.7225 0 2 C0 1.34 0 0.68 0 0 Z " fill="#F3CA2D" transform="translate(97,105)"/>
<path d="M0 0 C0.33 0 0.66 0 1 0 C1 1.98 1 3.96 1 6 C-1.64 6.66 -4.28 7.32 -7 8 C-6.02133662 6.85373678 -5.04205413 5.70800212 -4.0625 4.5625 C-3.51722656 3.92441406 -2.97195312 3.28632812 -2.41015625 2.62890625 C-1.63204305 1.73008851 -0.84063472 0.84063472 0 0 Z " fill="#FCAC26" transform="translate(125,109)"/>
<path d="M0 0 C-2.55068845 2.35448165 -3.71017358 2.98327924 -7.25 3.1875 C-8.1575 3.125625 -9.065 3.06375 -10 3 C-10 2.01 -10 1.02 -10 0 C-8.68 0 -7.36 0 -6 0 C-3.50907189 -1.24546405 -2.58919267 -0.7767578 0 0 Z " fill="#E9AD37" transform="translate(191,131)"/>
<path d="M0 0 C0.66 0 1.32 0 2 0 C0.9594481 2.74327319 -0.00500018 4.0040542 -2.3125 5.875 C-5 7 -5 7 -7.8125 6.1875 C-8.534375 5.795625 -9.25625 5.40375 -10 5 C-9.443125 4.87625 -8.88625 4.7525 -8.3125 4.625 C-5.7578959 3.93456646 -3.40539865 3.10518316 -1 2 C-0.67 1.34 -0.34 0.68 0 0 Z " fill="#E3A63A" transform="translate(123,105)"/>
<path d="M0 0 C1.14926266 0.95421808 2.29430541 1.91352045 3.4375 2.875 C4.07558594 3.40867187 4.71367187 3.94234375 5.37109375 4.4921875 C7 6 7 6 8 8 C6.35 7.67 4.7 7.34 3 7 C3 6.01 3 5.02 3 4 C1.68 4 0.36 4 -1 4 C-0.67 2.68 -0.34 1.36 0 0 Z " fill="#F0C338" transform="translate(131,98)"/>
<path d="M0 0 C1.65 0 3.3 0 5 0 C5 3 5 3 4 5 C1.4375 5.625 1.4375 5.625 -1 6 C-0.67 4.02 -0.34 2.04 0 0 Z " fill="#FBA715" transform="translate(150,138)"/>
<path d="M0 0 C3.93846154 4.30769231 3.93846154 4.30769231 4.25 7.8125 C4.1675 8.534375 4.085 9.25625 4 10 C3.01 9.67 2.02 9.34 1 9 C-0.4783226 6.04335481 -0.06032783 3.25770263 0 0 Z " fill="#E9A528" transform="translate(112,123)"/>
<path d="M0 0 C0.33 0.66 0.66 1.32 1 2 C-0.9829823 3.9829823 -2.51218307 4.79378573 -5 6 C-5.99 6.66 -6.98 7.32 -8 8 C-6.70989008 5.12206249 -5.42638194 3.03816083 -3 1 C-2.01 0.67 -1.02 0.34 0 0 Z " fill="#F1AD33" transform="translate(189,88)"/>
<path d="M0 0 C0.66 0 1.32 0 2 0 C2.66 0.99 3.32 1.98 4 3 C4.66 3.33 5.32 3.66 6 4 C6 4.99 6 5.98 6 7 C4.35 6.67 2.7 6.34 1 6 C0.67 4.02 0.34 2.04 0 0 Z " fill="#F1A815" transform="translate(178,126)"/>
<path d="M0 0 C0.66 0 1.32 0 2 0 C1.67 1.65 1.34 3.3 1 5 C-0.65 5.33 -2.3 5.66 -4 6 C-2.7260411 3.96166576 -1.38938077 1.96147874 0 0 Z " fill="#FAA915" transform="translate(153,128)"/>
<path d="M0 0 C1.32 1.32 2.64 2.64 4 4 C3.01 4 2.02 4 1 4 C0.67 5.65 0.34 7.3 0 9 C-0.33 9 -0.66 9 -1 9 C-1.09765625 2.84765625 -1.09765625 2.84765625 -1 1 C-0.67 0.67 -0.34 0.34 0 0 Z " fill="#E1BC3D" transform="translate(130,120)"/>
<path d="M0 0 C-1.1875 1.5625 -1.1875 1.5625 -3 3 C-5.625 2.8125 -5.625 2.8125 -8 2 C-8.33 1.34 -8.66 0.68 -9 0 C-5.67465243 -1.10844919 -3.37817425 -0.84454356 0 0 Z " fill="#EFC738" transform="translate(109,85)"/>
<path d="M0 0 C4.8 3.32307692 4.8 3.32307692 5.8125 6.75 C5.874375 7.4925 5.93625 8.235 6 9 C5.01 9 4.02 9 3 9 C2 6 1 3 0 0 Z " fill="#F7C034" transform="translate(135,124)"/>
<path d="M0 0 C0.33 1.32 0.66 2.64 1 4 C1.66 4 2.32 4 3 4 C3 5.32 3 6.64 3 8 C4.32 8.66 5.64 9.32 7 10 C5.35 10 3.7 10 2 10 C-0.09350689 6.5980513 -0.17942163 3.94727588 0 0 Z " fill="#EFA836" transform="translate(146,90)"/>
<path d="M0 0 C1 3 1 3 0 6 C0.66 6.33 1.32 6.66 2 7 C0.35 7 -1.3 7 -3 7 C-3.33 6.01 -3.66 5.02 -4 4 C-3.01 4 -2.02 4 -1 4 C-0.67 2.68 -0.34 1.36 0 0 Z " fill="#F7C62A" transform="translate(101,78)"/>
<path d="M0 0 C2.64 0 5.28 0 8 0 C7.01 1.485 7.01 1.485 6 3 C2.875 3.1875 2.875 3.1875 0 3 C0 2.01 0 1.02 0 0 Z " fill="#EBAF38" transform="translate(115,131)"/>
<path d="M0 0 C2.50298434 2.93828597 3.46930939 5.17902761 4 9 C2.68 8.34 1.36 7.68 0 7 C0 4.69 0 2.38 0 0 Z " fill="#F0B136" transform="translate(113,48)"/>
</svg>
